<svg width="116" height="65" viewBox="0 0 116 65" fill="none" xmlns="http://www.w3.org/2000/svg">
<path d="M69.5861 1.77447C63.4482 4.03918 58.6206 10.3529 58.6896 16.1176L58.7585 18.9313L60.8275 14.8823C63.5172 9.73526 67.9999 5.41173 73.3792 2.87251L77.6551 0.813688H74.8965C73.3792 0.813688 70.9654 1.29408 69.5861 1.77447Z" fill="#13334C"/>
<path d="M81.1034 1.56859C72.2758 3.21565 63.5172 10.0784 61.1724 17.0098C60.2068 20.1666 60.2068 20.2353 61.3103 18.5882C65.5172 12.4804 72.0689 7.74506 79.2413 5.54899C84.0689 4.03918 93.2413 3.69604 97.2413 4.86271C98.5517 5.20585 99.793 5.41173 99.931 5.27448C100.552 4.65683 94.6206 2.18624 90.7586 1.49997C86.2068 0.676437 85.862 0.676437 81.1034 1.56859Z" fill="#13334C"/>
<path d="M18.9655 5.61759C14.6207 6.57838 9.03449 10.3529 6.13794 14.1274C3.58622 17.4901 1.51725 21.8137 2.8276 20.9901C3.24139 20.7156 3.51725 20.1666 3.51725 19.6862C3.51725 18.6568 6.55173 15.7058 7.10346 16.1862C7.31036 16.3921 7.86208 15.9803 8.4138 15.3627C9.24139 14.2647 9.24139 14.196 8.34484 14.8137C6 17 7.86208 14.8823 8.68967 14.196C11.6552 11.4509 18.6897 8.77446 23.8621 8.43132C33.3104 7.81367 41.1035 11.8627 48.3448 21.0588C69.9311 48.5098 74.3448 53.245 81.3793 56.745C89.1035 60.5196 99.5173 58.9411 106.69 52.7647L110.069 49.8823L107.655 52.4901C106.345 53.8627 103.241 56.0588 100.759 57.2254C96.7586 59.2156 95.6552 59.4215 90.069 59.4215C78.7586 59.4215 74.4138 56.196 57.8621 35.4019C41.7241 15.1568 41.4483 14.8823 35.5173 11.9999C30.8276 9.66661 29.7931 9.3921 25.0345 9.46073C21.3104 9.46073 18.5517 9.94112 15.8621 10.9705C10.4828 13.0294 8.27587 14.745 13.1724 13.098C15.3104 12.3431 18.8966 11.7941 21.5173 11.7254C29.6552 11.7254 32.4138 13.7843 46.3448 30.2548C63.7242 50.8431 70.4138 56.8137 79.8621 60.245C90.5518 64.0882 103.035 60.6568 109.103 52.147C109.862 51.049 110.621 49.745 110.69 49.2647C110.759 48.7843 111.241 47.6862 111.724 46.7254C112.276 45.696 111.724 46.1078 110.207 47.7549C106.345 52.147 101.448 54.4803 95.1035 54.8235C85.9311 55.3725 82.4138 53.3823 73.1035 42.196C65.0345 32.5882 53.4483 19.6176 49.3104 15.4999C40.3448 6.78426 29.5173 3.28426 18.9655 5.61759Z" fill="#13334C"/>
<path d="M81.5862 7.33331C79.5862 7.81371 77.0345 8.77449 75.931 9.32351C73.931 10.3529 61.862 20.1666 61.1034 21.3333C60.4827 22.3627 61.5862 24.0784 63.5862 25.1078C67.7931 27.3039 74.1379 26 79.1724 21.8137C84.1379 17.6961 87.862 16.2549 93.5172 16.2549C103.034 16.2549 111.724 22.2941 114.621 30.9412C115.103 32.1765 115.103 31.9706 114.828 29.9804C113.31 19.4804 104.552 10.147 93.5172 7.26469C88.6207 6.02939 86.4138 6.02939 81.5862 7.33331Z" fill="#13334C"/>
<path d="M0.413743 37.8039C1.03443 42.6764 3.79305 47.8235 8.13788 52.147C16.8965 60.7941 28.0689 63.1274 38.2068 58.3921C41.2413 56.9509 54.5517 46.3137 54.5517 45.2843C54.5517 45.0098 53.5862 43.9804 52.4137 43.0196C48.4827 39.7254 41.793 40.8235 35.3103 45.9705C30.2068 49.9509 27.4482 50.9804 21.7931 51.049C12.3448 51.1862 3.58616 45.147 0.620639 36.4313C0.275812 35.196 0.206846 35.6078 0.413743 37.8039Z" fill="#13334C"/>
<path d="M54.3448 48.5784C52.6207 51.8725 45.8621 57.6372 41.0345 59.9019C37.3103 61.6176 35.3103 62.098 30.1379 62.3725C26.6896 62.5098 22.6896 62.3725 21.3103 61.9608C17.931 61 18 61.4117 21.5862 63.3333C24.1379 64.7059 25.5862 64.9117 31.4483 64.9117C37.4483 64.9117 38.8276 64.7059 42.2069 63.1274C44.3448 62.098 47.3793 60.1764 48.9655 58.7353C51.6552 56.2647 56.5517 47.8235 55.7241 47C55.5172 46.7941 54.8965 47.4804 54.3448 48.5784Z" fill="#13334C"/>
</svg>
