<svg width="115" height="65" viewBox="0 0 115 65" fill="none" xmlns="http://www.w3.org/2000/svg">
<path d="M69.2889 0.960812C63.151 3.22552 58.3234 9.53924 58.3923 15.304L58.4613 18.1177L60.5303 14.0687C63.2199 8.9216 67.7027 4.59807 73.082 2.05885L77.3578 2.86102e-05H74.5992C73.082 2.86102e-05 70.6682 0.480419 69.2889 0.960812Z" fill="#1E1E1E" fill-opacity="0.933333"/>
<path d="M80.8058 0.754873C71.9782 2.40193 63.2196 9.26468 60.8748 16.1961C59.9092 19.3529 59.9092 19.4215 61.0127 17.7745C65.2196 11.6666 71.7713 6.93134 78.9437 4.73527C83.7713 3.22546 92.9437 2.88232 96.9437 4.04899C98.2541 4.39213 99.4954 4.59801 99.6334 4.46076C100.254 3.84311 94.323 1.37252 90.461 0.686245C85.9092 -0.137283 85.5644 -0.137283 80.8058 0.754873Z" fill="#1E1E1E" fill-opacity="0.933333"/>
<path d="M18.6683 4.80387C14.3235 5.76466 8.73725 9.53917 5.8407 13.3137C3.28898 16.6764 1.22001 21 2.53036 20.1764C2.94415 19.9019 3.22001 19.3529 3.22001 18.8725C3.22001 17.8431 6.25449 14.8921 6.80622 15.3725C7.01311 15.5784 7.56484 15.1666 8.11656 14.549C8.94415 13.4509 8.94415 13.3823 8.0476 14C5.70276 16.1863 7.56484 14.0686 8.39243 13.3823C11.3579 10.6372 18.3924 7.96074 23.5648 7.6176C33.0131 6.99995 40.8062 11.049 48.0476 20.2451C69.6338 47.696 74.0476 52.4313 81.0821 55.9313C88.8062 59.7058 99.22 58.1274 106.392 51.9509L109.772 49.0686L107.358 51.6764C106.048 53.049 102.944 55.2451 100.461 56.4117C96.4614 58.4019 95.358 58.6078 89.7717 58.6078C78.4614 58.6078 74.1166 55.3823 57.5648 34.5882C41.4269 14.3431 41.151 14.0686 35.22 11.1862C30.5304 8.85289 29.4959 8.57838 24.7373 8.64701C21.0131 8.64701 18.2545 9.1274 15.5648 10.1568C10.1855 12.2156 7.97863 13.9313 12.8752 12.2843C15.0131 11.5294 18.5993 10.9803 21.22 10.9117C29.3579 10.9117 32.1166 12.9705 46.0476 29.4411C63.4269 50.0294 70.1166 56 79.5648 59.4313C90.2545 63.2745 102.737 59.8431 108.806 51.3333C109.565 50.2352 110.323 48.9313 110.392 48.4509C110.461 47.9705 110.944 46.8725 111.427 45.9117C111.979 44.8823 111.427 45.2941 109.91 46.9411C106.048 51.3333 101.151 53.6666 94.8062 54.0098C85.6338 54.5588 82.1166 52.5686 72.8062 41.3823C64.7373 31.7745 53.151 18.8039 49.0131 14.6862C40.0476 5.97054 29.22 2.47054 18.6683 4.80387Z" fill="#1E1E1E" fill-opacity="0.933333"/>
<path d="M81.2883 6.51953C79.2883 6.99993 76.7366 7.96071 75.6332 8.50973C73.6332 9.53914 61.5642 19.3529 60.8056 20.5195C60.1849 21.5489 61.2883 23.2646 63.2883 24.294C67.4952 26.4901 73.84 25.1862 78.8745 20.9999C83.84 16.8823 87.5642 15.4411 93.2194 15.4411C102.737 15.4411 111.426 21.4803 114.323 30.1274C114.806 31.3627 114.806 31.1568 114.53 29.1666C113.012 18.6666 104.254 9.33326 93.2194 6.45091C88.3228 5.21561 86.1159 5.21561 81.2883 6.51953Z" fill="#1E1E1E" fill-opacity="0.933333"/>
<path d="M0.116379 36.9902C0.737069 41.8627 3.49569 47.0098 7.84052 51.3333C16.5991 59.9804 27.7715 62.3137 37.9095 57.5784C40.944 56.1372 54.2543 45.5 54.2543 44.4706C54.2543 44.196 53.2888 43.1666 52.1164 42.2058C48.1853 38.9117 41.4957 40.0098 35.0129 45.1568C29.9095 49.1372 27.1509 50.1666 21.4957 50.2353C12.0474 50.3725 3.28879 44.3333 0.323276 35.6176C-0.0215517 34.3823 -0.0905172 34.7941 0.116379 36.9902Z" fill="#1E1E1E" fill-opacity="0.933333"/>
<path d="M54.0473 47.7647C52.3232 51.0588 45.5646 56.8235 40.737 59.0882C37.0128 60.8039 35.0128 61.2843 29.8404 61.5588C26.3922 61.6961 22.3922 61.5588 21.0128 61.147C17.6335 60.1863 17.7025 60.598 21.2887 62.5196C23.8404 63.8921 25.2887 64.098 31.1508 64.098C37.1508 64.098 38.5301 63.8921 41.9094 62.3137C44.0473 61.2843 47.0818 59.3627 48.668 57.9216C51.3577 55.451 56.2542 47.0098 55.4266 46.1863C55.2197 45.9804 54.5991 46.6667 54.0473 47.7647Z" fill="#1E1E1E" fill-opacity="0.933333"/>
</svg>
