<svg

        xmlns:svg="http://www.w3.org/2000/svg"
        xmlns="http://www.w3.org/2000/svg"
        xmlns:sodipodi="http://sodipodi.sourceforge.net/DTD/sodipodi-0.dtd"
        xmlns:inkscape="http://www.inkscape.org/namespaces/inkscape"
        version="1.0"
        width="250.00006pt"
        height="240.23743pt"
        viewBox="0 0 300.00006 290.23743"
        preserveAspectRatio="xMidYMid meet"
        id="svg3887"
        sodipodi:docname="safari-pinned-tab.svg"
        inkscape:version="0.92.4 (5da689c313, 2019-01-14)">
    <defs
            id="defs3891" />
    <sodipodi:namedview
            pagecolor="#ffffff"
            bordercolor="#666666"
            borderopacity="1"
            objecttolerance="10"
            gridtolerance="10"
            guidetolerance="10"
            inkscape:pageopacity="0"
            inkscape:pageshadow="2"
            inkscape:window-width="1366"
            inkscape:window-height="715"
            id="namedview3889"
            showgrid="false"
            inkscape:zoom="0.11478599"
            inkscape:cx="912.43333"
            inkscape:cy="857.66661"
            inkscape:window-x="-8"
            inkscape:window-y="-8"
            inkscape:window-maximized="1"
            inkscape:current-layer="svg3887" />

    <g
            transform="matrix(0.0226834,0,0,-0.0226834,-19.660837,319.21548)"
            id="g3885"
            style="stroke:none">
        <path class="ci"
              stroke-miterlimit="10"
              d="m 7141,14065 c -1,-6 -16,-11 -33,-11 -18,-1 -69,-5 -113,-9 -44,-4 -99,-7 -122,-8 -24,-1 -43,-4 -43,-7 0,-3 -15,-6 -32,-7 -60,-4 -143,-14 -158,-20 -14,-5 -43,-9 -120,-18 -19,-2 -35,-4 -35,-5 0,-3 -48,-13 -120,-25 -22,-3 -53,-10 -70,-15 -16,-5 -43,-12 -60,-15 -16,-2 -45,-9 -64,-15 -19,-5 -37,-8 -39,-5 -3,2 -14,-1 -25,-6 -20,-11 -53,-19 -94,-21 -13,-1 -23,-6 -23,-10 0,-5 -6,-8 -12,-7 -7,1 -20,0 -28,-4 -21,-7 -102,-28 -117,-29 -7,-1 -13,-5 -13,-9 0,-10 -34,-6 -42,6 -5,6 -8,3 -8,-6 0,-9 -6,-16 -12,-17 -7,0 -31,-6 -53,-12 -22,-6 -47,-13 -55,-15 -8,-2 -15,-4 -15,-5 0,-1 -7,-3 -15,-5 -8,-2 -28,-8 -45,-15 -16,-6 -31,-11 -33,-11 -1,1 -18,-5 -37,-13 -19,-8 -35,-12 -35,-9 0,3 -7,0 -15,-7 -8,-7 -15,-9 -15,-4 0,4 -5,3 -12,-4 -7,-7 -20,-12 -30,-12 -10,0 -18,-5 -18,-11 0,-5 -4,-8 -10,-4 -5,3 -17,1 -27,-4 -16,-9 -50,-22 -63,-25 -3,-1 -15,-7 -27,-14 -13,-7 -23,-10 -23,-6 0,3 -7,0 -16,-7 -9,-8 -22,-14 -28,-14 -6,-1 -23,-6 -38,-13 -47,-20 -83,-33 -87,-32 -2,1 -7,-3 -10,-8 -3,-6 -15,-12 -26,-14 -11,-1 -23,-7 -26,-11 -3,-5 -13,-9 -21,-11 -9,-1 -23,-8 -32,-15 -9,-7 -16,-10 -16,-6 0,5 -9,0 -20,-10 -11,-10 -20,-15 -20,-10 0,4 -7,1 -17,-6 -9,-8 -19,-13 -22,-13 -3,1 -5,-2 -3,-8 1,-5 -1,-7 -6,-4 -5,3 -20,-1 -35,-9 -14,-7 -28,-11 -31,-7 -3,3 -6,0 -6,-7 0,-7 -4,-9 -10,-6 -5,3 -10,2 -10,-4 0,-10 -29,-23 -42,-18 -3,1 -17,-8 -30,-21 -14,-12 -28,-19 -31,-15 -4,3 -7,0 -7,-7 0,-7 -3,-10 -6,-7 -4,4 -19,-2 -33,-12 -14,-10 -41,-24 -58,-32 -18,-8 -33,-17 -33,-20 0,-4 -13,-12 -30,-18 -16,-5 -30,-14 -30,-19 0,-5 -6,-9 -13,-9 -8,0 -34,-14 -59,-31 -25,-17 -48,-28 -52,-25 -3,4 -6,1 -6,-6 0,-7 -13,-17 -30,-22 -16,-6 -30,-15 -30,-20 0,-5 -5,-9 -11,-9 -6,0 -17,-7 -26,-15 -8,-8 -18,-13 -23,-10 -4,3 -10,-2 -14,-10 -3,-8 -10,-15 -16,-15 -9,0 -35,-19 -66,-48 -8,-7 -14,-11 -14,-8 0,4 -34,-19 -74,-49 -41,-30 -79,-55 -85,-55 -5,0 -11,-3 -13,-7 -3,-8 -152,-123 -179,-139 -19,-10 -98,-77 -140,-116 -16,-15 -29,-26 -29,-24 0,4 -57,-44 -95,-79 -12,-11 -46,-41 -76,-66 -79,-68 -358,-346 -352,-352 2,-3 -5,-8 -16,-12 -12,-3 -21,-10 -21,-14 0,-5 -10,-19 -22,-33 -93,-101 -210,-237 -251,-291 -12,-16 -26,-34 -32,-40 -5,-7 -26,-33 -45,-60 -19,-26 -45,-60 -58,-75 -12,-15 -41,-55 -64,-89 -23,-35 -45,-63 -50,-63 -4,0 -8,-7 -8,-15 0,-8 -5,-15 -12,-15 -6,0 -9,-3 -5,-6 6,-6 0,-16 -33,-52 -8,-10 -24,-34 -35,-55 -11,-20 -23,-37 -27,-37 -5,0 -8,-7 -8,-15 0,-9 -7,-18 -15,-21 -8,-4 -15,-12 -15,-20 0,-8 -9,-23 -20,-34 -11,-11 -20,-21 -19,-22 4,-10 -26,-56 -33,-52 -5,3 -7,2 -6,-3 3,-13 -13,-53 -22,-53 -4,0 -11,-11 -14,-25 -4,-16 -11,-23 -18,-19 -7,4 -8,3 -4,-5 4,-6 -1,-19 -10,-29 -16,-16 -16,-17 -1,-20 9,-2 17,-8 17,-13 0,-6 4,-8 8,-5 5,3 20,-1 34,-8 20,-11 29,-11 39,-2 9,8 10,8 5,-1 -5,-9 -1,-13 11,-13 10,0 29,-7 41,-16 12,-8 27,-12 32,-9 6,3 10,1 10,-4 0,-6 7,-11 15,-11 8,0 15,-5 15,-11 0,-5 4,-8 9,-5 5,3 14,-1 21,-9 7,-8 16,-13 20,-10 15,9 19,-25 4,-39 -8,-9 -15,-19 -16,-23 -2,-19 -22,-53 -30,-53 -5,0 -7,-4 -4,-9 3,-5 -4,-20 -15,-35 -11,-14 -17,-26 -13,-26 4,0 1,-8 -7,-17 -8,-10 -34,-58 -59,-108 -25,-49 -49,-93 -55,-97 -6,-5 -4,-8 5,-8 12,-1 11,-3 -2,-11 -10,-5 -18,-14 -18,-19 0,-9 -18,-51 -80,-185 -18,-38 -32,-76 -31,-82 1,-7 -3,-13 -9,-13 -6,0 -9,-4 -6,-8 3,-5 -1,-19 -7,-33 -7,-13 -19,-43 -26,-66 -8,-24 -18,-43 -23,-43 -5,0 -6,-5 -3,-10 4,-6 1,-17 -5,-25 -7,-8 -10,-15 -6,-15 4,0 0,-13 -9,-30 -9,-16 -12,-30 -8,-30 5,0 2,-4 -4,-8 -7,-5 -14,-20 -15,-35 -1,-15 -5,-27 -9,-27 -3,0 -6,-7 -7,-15 -1,-8 -3,-22 -4,-30 -1,-8 -5,-15 -10,-15 -5,0 -7,-3 -5,-7 3,-5 0,-19 -6,-33 -11,-28 -16,-47 -19,-72 -1,-10 -5,-18 -9,-18 -3,0 -10,-19 -14,-42 -9,-46 -8,-45 -18,-68 -4,-8 -9,-26 -11,-40 -3,-14 -6,-27 -7,-30 -1,-3 -3,-9 -4,-15 -2,-5 -4,-13 -5,-17 -1,-5 -4,-12 -5,-18 -1,-5 -3,-11 -5,-12 -10,-14 -19,-119 -9,-113 5,4 15,3 22,-2 6,-4 17,-8 22,-10 6,-1 21,-5 34,-9 16,-5 22,-4 17,4 -3,6 2,15 11,21 11,6 13,11 5,11 -8,0 -10,5 -5,13 8,12 12,28 15,60 1,9 7,17 12,17 5,0 7,3 4,6 -4,3 -2,20 4,37 5,18 12,46 15,62 3,17 9,35 15,42 5,7 7,17 3,23 -3,5 -2,10 4,10 5,0 8,9 6,20 -2,11 0,20 4,20 8,0 14,20 23,75 2,11 5,22 8,25 3,3 16,39 29,80 14,41 28,80 33,86 4,6 5,14 1,17 -3,4 0,13 6,21 7,8 10,19 7,25 -3,5 1,12 10,15 9,4 14,9 11,12 -3,3 3,25 13,49 10,24 16,46 13,49 -4,3 -2,6 4,6 10,0 26,39 27,65 1,6 7,16 14,23 7,8 10,18 7,23 -4,5 -1,9 4,9 6,0 11,7 11,15 0,8 9,30 20,50 11,19 17,35 14,35 -4,0 -1,6 5,13 6,8 8,17 4,20 -3,4 -2,7 4,7 10,0 26,36 24,53 -1,4 4,7 10,7 5,0 7,5 4,10 -3,6 -2,10 3,10 5,0 15,18 22,40 7,22 17,40 22,40 5,0 7,3 5,8 -2,4 6,25 19,47 12,22 32,61 44,88 13,26 27,47 32,47 5,0 7,4 4,9 -3,5 2,19 12,32 10,13 21,32 25,41 3,10 22,43 42,73 19,31 35,58 35,61 0,2 8,17 19,32 29,43 48,76 49,86 0,5 7,13 16,18 9,5 16,16 16,23 0,8 5,15 10,15 6,0 10,7 10,15 0,8 5,15 10,15 6,0 10,7 10,15 0,8 5,15 10,15 6,0 10,7 10,15 0,9 7,18 15,21 8,4 12,10 9,15 -3,5 0,9 5,9 6,0 11,7 11,15 0,9 7,18 15,21 8,4 12,10 9,15 -3,5 2,12 10,15 9,3 16,11 16,17 0,6 7,17 15,26 9,9 38,48 66,86 28,39 55,71 60,73 5,2 9,8 9,14 0,6 9,20 20,32 44,45 79,93 73,100 -3,3 1,6 10,6 9,0 17,3 17,8 0,9 64,85 108,129 19,18 31,33 27,33 -3,0 60,67 141,149 80,82 150,155 155,162 5,8 9,11 9,7 0,-3 22,15 49,42 27,27 52,46 55,43 3,-4 6,2 6,12 0,10 2,16 5,13 3,-3 21,10 41,28 19,19 40,34 46,34 6,0 9,3 5,6 -3,4 1,13 9,21 11,11 12,18 3,29 -6,7 -9,19 -6,26 2,7 -4,22 -14,34 -19,20 -19,21 16,52 19,18 39,32 45,32 6,0 9,4 5,9 -3,5 3,12 12,15 10,4 32,19 49,34 18,15 42,34 54,42 13,8 31,24 41,34 11,11 19,16 19,11 0,-5 7,1 16,13 8,12 20,22 25,22 5,0 15,5 22,10 51,44 73,60 79,60 4,0 13,6 20,13 7,6 51,37 97,67 46,30 89,59 95,65 6,6 26,18 44,26 17,7 32,17 32,21 0,5 4,8 10,8 5,0 25,10 43,23 45,29 96,56 104,56 3,0 9,3 12,8 3,6 33,24 66,42 33,18 66,38 73,43 6,6 12,7 12,4 0,-4 7,0 16,8 8,9 24,16 35,16 10,0 19,4 19,9 0,9 58,35 73,32 4,0 7,3 7,8 0,10 30,23 42,18 4,-1 14,7 22,18 9,11 16,17 16,12 0,-4 17,2 37,13 21,11 43,20 50,20 7,0 13,5 13,10 0,6 3,9 8,8 4,-1 24,6 46,15 21,9 42,17 47,17 5,0 9,4 9,10 0,5 7,7 15,4 8,-3 17,0 20,8 3,8 13,14 23,15 9,1 35,10 57,20 56,25 65,23 108,-20 20,-21 37,-35 37,-31 0,3 7,1 15,-6 10,-9 15,-9 15,-1 0,6 3,10 8,9 4,-1 17,3 28,10 12,6 24,8 28,5 3,-3 6,0 6,7 0,7 3,11 6,8 3,-4 21,0 40,8 19,8 34,11 34,7 0,-5 4,-3 8,3 4,6 25,16 47,22 105,29 130,37 135,42 7,7 30,13 53,14 9,0 17,4 17,9 0,5 6,7 14,4 7,-3 19,0 25,6 6,6 11,7 11,1 0,-5 5,-2 10,6 9,13 10,13 10,0 0,-11 3,-12 8,-3 4,6 21,14 37,17 17,2 31,5 33,6 2,3 7,4 47,14 17,4 40,12 53,17 16,6 21,6 17,-1 -8,-13 47,11 57,25 5,6 8,5 8,-3 0,-9 5,-10 19,-3 10,6 36,12 57,15 21,2 39,5 39,6 0,2 27,8 70,15 17,3 41,8 55,11 14,3 36,6 50,8 14,2 41,7 60,11 19,4 47,9 61,10 15,1 32,5 38,9 6,4 11,2 11,-5 0,-8 4,-8 13,-2 6,6 19,11 27,12 25,2 93,10 125,15 71,9 194,20 243,20 28,0 52,3 52,6 0,3 37,5 83,5 45,0 92,3 103,7 12,3 26,2 33,-5 8,-8 11,-8 11,0 0,7 11,8 33,3 18,-4 43,-3 55,1 12,5 24,4 27,-1 3,-5 11,-7 18,-5 24,10 117,12 117,3 0,-5 9,-4 20,2 14,8 20,8 20,0 0,-7 6,-8 19,-1 10,6 21,7 25,4 3,-3 30,-7 59,-8 29,0 58,-4 65,-9 7,-4 12,-2 12,4 0,7 7,8 18,3 9,-5 41,-8 70,-8 28,1 52,-3 52,-7 0,-5 9,-4 20,2 11,6 20,7 20,3 0,-4 30,-9 68,-11 37,-1 68,-7 70,-12 2,-6 11,-6 23,0 11,6 19,7 19,2 0,-6 12,-10 28,-10 15,-1 52,-4 82,-7 30,-4 63,-7 73,-8 9,-1 17,-6 17,-12 0,-5 5,-3 10,5 5,8 10,10 10,4 0,-6 12,-11 28,-12 15,0 30,-1 35,-2 4,-1 12,-4 17,-5 6,-1 11,-4 13,-5 1,-1 13,-4 27,-5 100,-14 127,-19 150,-27 8,-3 40,-11 70,-17 30,-6 66,-14 80,-17 14,-3 33,-7 42,-8 10,-1 21,-5 24,-9 4,-4 17,-7 28,-7 12,0 32,-6 46,-13 14,-7 41,-14 60,-15 19,-2 37,-6 40,-10 3,-4 19,-9 35,-11 17,-1 33,-7 36,-13 3,-5 9,-9 13,-9 3,1 9,0 14,0 4,-1 14,-1 24,0 9,1 19,-3 23,-9 3,-5 17,-10 31,-10 13,0 24,-4 24,-10 0,-5 8,-10 19,-10 10,0 35,-7 55,-15 20,-8 36,-12 36,-8 0,5 4,3 8,-3 4,-7 18,-14 32,-15 14,-2 28,-8 31,-12 3,-5 12,-9 20,-11 26,-4 94,-28 105,-37 6,-5 14,-6 17,-2 4,3 7,0 7,-7 0,-7 3,-10 7,-7 3,4 11,3 17,-1 6,-5 34,-17 61,-27 28,-10 54,-22 59,-26 6,-5 18,-9 27,-9 10,0 19,-5 21,-10 2,-6 13,-12 26,-13 12,0 22,-5 22,-9 0,-4 3,-7 8,-6 4,1 31,-10 60,-24 28,-15 52,-24 52,-20 0,4 4,2 8,-3 9,-12 95,-55 111,-55 6,0 11,-4 11,-9 0,-10 30,-23 41,-18 3,1 13,-6 23,-15 10,-10 23,-18 30,-18 7,0 22,-9 34,-20 12,-12 22,-18 22,-15 0,6 59,-24 70,-35 9,-9 65,-41 103,-58 20,-9 37,-20 37,-24 0,-5 6,-8 13,-8 8,0 22,-9 32,-20 10,-11 22,-17 26,-14 5,3 12,-2 15,-10 3,-9 10,-13 15,-10 5,3 9,0 9,-5 0,-6 5,-11 10,-11 6,0 33,-16 60,-35 27,-19 52,-35 55,-35 5,0 36,-25 60,-47 8,-7 17,-13 22,-13 7,0 28,-16 81,-60 6,-6 12,-7 12,-3 0,4 4,3 8,-2 4,-6 27,-26 52,-45 25,-19 46,-38 48,-42 2,-5 9,-8 16,-8 6,0 19,-8 28,-17 25,-26 46,-43 55,-43 5,0 15,-9 23,-20 8,-11 20,-20 27,-20 7,0 13,-4 13,-8 0,-4 33,-35 73,-69 39,-33 92,-79 116,-102 24,-22 47,-41 52,-41 5,0 9,-4 9,-10 0,-5 7,-7 16,-3 11,4 12,8 4,13 -13,8 -13,20 2,38 7,8 7,12 -1,12 -7,0 -9,5 -4,13 19,31 10,49 -48,104 -34,32 -77,73 -97,91 -19,18 -37,30 -40,28 -6,-6 -42,33 -42,46 0,4 -5,8 -11,8 -10,0 -148,102 -193,143 -11,9 -26,17 -33,17 -7,0 -13,4 -13,9 0,5 -22,24 -50,42 -27,18 -50,36 -50,41 0,5 -4,7 -9,4 -5,-3 -14,1 -21,9 -7,8 -30,25 -51,37 -22,12 -39,26 -39,30 0,5 -5,6 -10,3 -6,-3 -13,1 -16,9 -3,9 -10,13 -15,10 -5,-3 -9,-1 -9,4 0,4 -15,16 -32,25 -18,10 -53,31 -78,47 -25,16 -57,35 -72,41 -16,6 -28,14 -28,18 0,4 -16,13 -35,21 -19,8 -35,17 -35,22 0,4 -6,8 -14,8 -8,0 -22,7 -30,16 -9,8 -16,13 -16,9 0,-4 -7,1 -16,9 -8,9 -19,14 -24,11 -19,-12 -17,27 3,48 12,13 41,44 65,71 23,26 42,44 42,39 1,-4 7,3 15,17 8,14 14,22 15,18 0,-7 25,10 55,39 7,7 16,9 20,5 4,-4 1,3 -6,16 -8,12 -22,22 -31,22 -10,0 -18,3 -18,8 0,4 -24,18 -53,32 -28,14 -54,27 -57,30 -6,6 -53,29 -200,98 -141,66 -172,80 -190,84 -8,2 -18,7 -21,11 -3,5 -12,9 -20,11 -8,1 -36,12 -63,24 -27,12 -52,22 -57,22 -5,0 -9,4 -9,10 0,5 -6,7 -14,4 -8,-3 -25,0 -38,7 -24,14 -82,37 -108,44 -8,2 -28,8 -45,15 -16,6 -31,11 -33,11 -1,-1 -18,6 -38,14 -20,8 -40,12 -45,9 -5,-3 -9,0 -9,6 0,6 -4,8 -10,5 -5,-3 -10,-1 -10,6 0,6 -8,9 -20,6 -11,-3 -20,-1 -20,5 0,5 -4,6 -10,3 -5,-3 -10,-2 -10,2 0,5 -12,10 -26,11 -15,1 -32,6 -39,12 -6,5 -14,7 -18,4 -3,-3 -26,3 -51,15 -27,11 -46,15 -46,9 0,-7 -4,-7 -12,-1 -7,6 -26,14 -43,18 -40,11 -44,12 -52,15 -16,5 -29,7 -51,8 -13,1 -21,6 -18,11 4,5 -3,7 -14,4 -11,-3 -27,0 -35,7 -12,10 -15,10 -15,0 0,-10 -3,-10 -15,0 -8,7 -24,10 -35,7 -11,-3 -18,-1 -14,4 3,5 -1,9 -8,10 -7,0 -20,2 -28,4 -8,2 -30,6 -49,10 -19,3 -37,8 -41,10 -4,2 -20,7 -36,9 -58,11 -74,15 -83,20 -5,4 -12,0 -14,-6 -4,-10 -6,-10 -6,0 -1,7 -5,10 -11,7 -5,-3 -10,0 -10,7 0,9 -3,9 -10,-2 -5,-8 -10,-10 -10,-4 0,6 -10,10 -22,9 -13,-1 -27,1 -33,5 -10,8 -17,9 -77,12 -21,2 -38,5 -38,8 0,3 -19,7 -43,8 -72,6 -82,8 -95,16 -7,4 -12,2 -12,-6 0,-11 -2,-11 -9,0 -4,7 -12,12 -17,11 -5,-1 -11,-1 -14,0 -5,2 -98,10 -157,14 -18,1 -33,6 -33,11 0,4 -6,4 -13,-2 -8,-7 -18,-7 -27,-2 -9,6 -17,5 -22,-3 -6,-9 -8,-9 -8,1 0,7 -5,10 -11,6 -6,-3 -15,0 -20,7 -7,11 -9,11 -9,1 0,-9 -5,-10 -18,-3 -10,6 -24,6 -32,1 -8,-5 -19,-6 -25,-2 -15,10 -39,8 -47,-3 -5,-6 -8,-6 -8,2 0,17 -570,17 -570,0 0,-9 -2,-9 -8,0 -8,13 -29,12 -51,-1 -11,-7 -12,-6 -6,5 7,12 6,12 -7,1 -13,-10 -17,-10 -21,0 -3,7 -6,8 -6,3 z"
              id="path3865"
              inkscape:connector-curvature="0"
              style="fill:#a37eb9;stroke:#ffffff;stroke-width:5;stroke-miterlimit:10" >

        </path>
        <path class="ci"
              stroke-miterlimit="10"
              d="m 10969,13493 c -11,-13 -11,-15 0,-9 8,6 7,0 -4,-18 -10,-14 -14,-26 -9,-26 4,0 1,-6 -7,-12 -8,-7 -12,-12 -10,-11 2,1 12,-9 23,-22 11,-14 28,-25 39,-25 10,0 19,-4 19,-8 0,-5 16,-17 35,-28 19,-10 35,-22 35,-27 0,-4 4,-6 9,-3 5,4 11,2 13,-2 1,-5 32,-28 68,-52 36,-24 68,-48 72,-54 5,-7 8,-7 8,-1 0,6 3,5 8,-1 10,-16 141,-114 152,-114 4,0 10,-3 12,-7 2,-5 26,-26 53,-48 28,-22 52,-43 53,-47 2,-5 8,-8 14,-8 6,0 18,-8 27,-18 9,-9 36,-33 61,-53 25,-20 56,-47 70,-59 14,-12 52,-45 84,-73 33,-29 84,-76 114,-104 30,-29 58,-53 63,-53 6,0 7,-4 4,-10 -3,-5 -3,-10 2,-10 14,0 73,-57 73,-70 0,-8 3,-11 6,-8 7,8 114,-99 114,-113 0,-6 5,-7 10,-4 6,3 10,2 10,-2 0,-5 27,-37 60,-71 33,-35 60,-64 60,-66 0,-3 15,-20 33,-38 64,-68 107,-120 107,-129 0,-6 5,-7 10,-4 6,3 10,1 10,-6 0,-6 15,-28 33,-49 44,-50 54,-63 152,-192 48,-62 93,-121 101,-131 8,-9 14,-22 14,-27 0,-6 5,-10 10,-10 6,0 10,-7 10,-15 0,-8 4,-15 9,-15 4,0 19,-20 32,-45 13,-25 30,-45 36,-45 7,0 12,-3 11,-7 -3,-10 42,-85 56,-95 6,-4 7,-8 3,-8 -4,0 1,-10 13,-22 11,-12 26,-34 32,-50 7,-15 16,-28 20,-28 5,0 8,-5 8,-11 0,-6 14,-30 30,-54 17,-24 30,-48 30,-54 0,-6 5,-11 10,-11 6,0 10,-9 10,-21 0,-13 4,-18 12,-13 7,5 9,2 5,-9 -3,-9 0,-18 9,-21 9,-3 12,-10 9,-16 -3,-6 1,-13 9,-16 9,-3 16,-12 16,-19 0,-20 26,-65 33,-58 4,3 7,-1 7,-11 0,-15 4,-15 39,3 21,11 41,18 44,14 15,-15 -5,61 -23,86 -11,16 -20,34 -20,40 0,6 -4,11 -10,11 -5,0 -10,9 -10,19 0,11 -3,21 -7,23 -10,4 -73,107 -73,119 0,5 -5,9 -11,9 -5,0 -7,5 -4,10 3,6 2,10 -3,10 -5,0 -15,14 -22,30 -7,17 -17,30 -22,30 -5,0 -6,5 -3,10 3,6 2,10 -2,10 -5,0 -13,9 -18,20 -6,11 -46,72 -90,136 -44,64 -87,126 -95,138 -44,64 -114,157 -138,182 -7,8 -11,14 -8,14 3,0 -11,17 -29,38 -19,20 -35,40 -35,44 0,7 -23,34 -87,102 -17,19 -29,37 -26,40 3,3 -2,8 -11,12 -9,3 -16,12 -16,20 0,8 -6,14 -14,14 -8,0 -17,9 -21,20 -3,10 -19,30 -36,44 -16,14 -29,30 -29,36 0,6 -4,9 -9,6 -5,-4 -15,7 -23,24 -7,17 -21,33 -30,36 -10,3 -18,9 -18,14 0,5 -88,96 -195,203 -107,107 -195,192 -195,189 0,-3 -13,8 -28,24 -15,16 -57,54 -92,84 -36,30 -67,57 -70,60 -4,4 -185,151 -228,185 -7,5 -19,16 -27,23 -8,7 -15,11 -15,8 0,-3 -8,2 -18,12 -32,29 -62,52 -70,52 -4,0 -20,12 -37,28 -16,15 -42,33 -57,41 -16,8 -28,18 -28,23 0,4 -7,8 -15,8 -8,0 -15,5 -15,10 0,6 -7,10 -15,10 -8,0 -15,4 -15,8 0,9 -64,48 -68,42 -2,-3 -8,3 -13,13 -6,9 -17,17 -24,17 -8,0 -15,5 -15,10 0,6 -7,10 -15,10 -8,0 -15,4 -15,9 0,5 -8,11 -17,14 -10,4 -27,13 -39,22 -19,14 -22,14 -35,-2 z"
              id="path3867"
              inkscape:connector-curvature="0"
              style="fill:#6d52a2;stroke:#ffffff;stroke-width:5;stroke-miterlimit:10" />
        <path class="it"
              stroke-miterlimit="10"
              d="m 7748,11675 c -2,-2 -26,-5 -54,-9 -53,-6 -201,-51 -219,-66 -8,-6 -11,-178 -10,-552 v -543 l 43,-3 42,-3 v 525 524 l 48,16 c 147,47 315,42 464,-16 172,-66 311,-195 388,-360 18,-37 33,-73 34,-80 2,-7 8,-32 15,-56 16,-57 21,-203 10,-276 -29,-179 -128,-343 -272,-452 -74,-55 -121,-80 -207,-109 -63,-22 -65,-24 -68,-59 -4,-45 8,-46 108,-10 360,130 579,498 514,868 -17,100 -28,134 -71,221 -113,228 -319,382 -578,431 -31,6 -183,13 -187,9 z"
              id="path3869"
              inkscape:connector-curvature="0"
              style="fill:#000000;stroke:#ffffff;stroke-width:5;stroke-miterlimit:10" />
        <path class="it"
              stroke-miterlimit="10"
              d="m 7367,11539 c -310,-216 -429,-624 -279,-964 43,-99 91,-166 177,-250 142,-139 307,-211 512,-222 56,-3 113,-3 127,1 l 25,6 v 348 c 0,191 0,434 1,540 v 192 h 109 c 119,0 121,1 113,60 l -4,25 -261,-1 c -144,-1 -264,-2 -267,-3 -3,0 -6,-19 -6,-41 v -40 h 112 c 81,0 113,-3 116,-12 2,-7 4,-233 4,-503 l -1,-490 -30,-5 c -49,-9 -193,19 -273,52 -192,80 -342,239 -407,433 -24,73 -30,119 -30,235 1,148 37,264 118,384 43,64 133,156 180,184 23,14 27,23 27,64 0,26 -1,48 -2,47 -2,0 -29,-18 -61,-40 z"
              id="path3871"
              inkscape:connector-curvature="0"
              style="fill:#000000;stroke:#ffffff;stroke-width:5;stroke-miterlimit:10" />
        <path class="pathITM"
              stroke-miterlimit="10"
              d="m 9692,11134 c -22,-19 -44,-34 -48,-34 -8,0 -13,-4 -100,-87 -66,-63 -119,-135 -136,-186 -6,-17 -15,-35 -20,-38 -5,-3 -15,-48 -23,-100 -17,-108 -6,-235 25,-304 10,-22 24,-55 30,-72 7,-18 16,-33 20,-33 4,0 13,-20 20,-45 l 13,-45 -68,-65 c -38,-36 -71,-65 -74,-65 -2,0 -31,-27 -63,-60 -33,-33 -62,-60 -65,-60 -3,0 -30,-24 -62,-54 -31,-30 -85,-82 -120,-115 -35,-34 -66,-61 -68,-61 -7,0 -101,-99 -128,-134 -18,-23 -57,-68 -101,-117 -8,-9 -14,-20 -14,-26 0,-6 -7,-13 -15,-17 -8,-3 -15,-12 -15,-21 0,-8 -3,-15 -7,-15 -5,0 -19,-17 -33,-38 -14,-20 -28,-39 -31,-42 -6,-5 -84,-116 -104,-148 -80,-128 -107,-170 -120,-186 -8,-10 -27,-44 -42,-75 -15,-31 -33,-59 -40,-64 -6,-4 -14,-21 -18,-37 -4,-17 -10,-30 -15,-30 -5,0 -20,-24 -35,-52 -38,-77 -78,-150 -98,-178 -9,-13 -17,-30 -17,-37 0,-7 -9,-22 -20,-33 -11,-11 -20,-31 -20,-45 0,-14 -4,-25 -8,-25 -8,0 -76,-132 -148,-285 -16,-33 -32,-61 -36,-63 -4,-2 -10,-19 -14,-38 -3,-19 -10,-34 -15,-34 -5,0 -14,-12 -20,-27 -20,-54 -34,-83 -40,-83 -4,0 -10,-16 -13,-35 -4,-19 -11,-35 -15,-35 -4,0 -16,-19 -26,-42 l -18,-43 -7,35 c -4,19 -16,53 -28,75 -11,22 -27,51 -34,65 -7,14 -15,27 -19,30 -8,6 -86,133 -111,180 -10,19 -22,42 -27,50 -5,8 -42,71 -82,140 -41,69 -76,127 -79,130 -3,3 -13,21 -22,40 -10,19 -33,62 -53,95 -20,33 -47,84 -61,113 -14,28 -30,52 -35,52 -5,0 -9,6 -9,13 0,7 -19,44 -43,82 -23,39 -48,81 -55,95 -27,52 -50,90 -60,102 -10,13 -31,50 -85,148 -17,30 -34,57 -38,60 -3,3 -14,22 -22,43 -9,20 -21,37 -26,37 -6,0 -11,7 -11,16 0,9 -9,28 -20,44 -11,15 -24,39 -30,54 -5,14 -14,26 -19,26 -5,0 -12,13 -16,30 -4,16 -10,32 -15,35 -4,3 -34,51 -66,107 -32,57 -62,105 -66,108 -4,3 -14,22 -22,42 -9,20 -19,38 -23,40 -5,1 -24,33 -43,70 -19,37 -38,68 -41,68 -4,0 -10,11 -13,25 -6,23 -28,49 -75,88 -12,10 -45,22 -73,27 -80,16 -1037,13 -1068,-3 -38,-19 -39,-81 -3,-155 15,-31 33,-62 38,-69 6,-7 16,-19 23,-27 6,-8 12,-19 12,-23 0,-4 21,-30 45,-58 68,-74 101,-153 114,-266 6,-52 16,-132 23,-179 19,-128 19,-2772 0,-2885 -8,-44 -17,-111 -22,-150 -6,-56 -17,-86 -54,-151 -25,-45 -46,-87 -46,-93 0,-6 -4,-11 -9,-11 -5,0 -14,-15 -20,-33 -6,-18 -29,-50 -51,-71 -22,-21 -40,-42 -40,-48 0,-5 -7,-16 -15,-24 -22,-22 -20,-127 3,-155 40,-47 56,-49 521,-49 249,0 450,4 470,10 18,5 39,17 47,27 21,29 27,90 14,144 -12,49 -28,72 -113,161 -15,16 -27,32 -27,37 0,5 -7,14 -15,21 -8,7 -15,26 -15,42 0,16 -7,42 -15,57 -8,16 -18,55 -24,87 -5,33 -17,76 -25,96 -9,21 -16,51 -16,68 0,17 -7,47 -15,66 -13,31 -15,230 -20,1427 -4,925 -2,1384 4,1370 6,-13 15,-23 20,-23 5,0 12,-13 16,-30 4,-16 10,-30 15,-30 5,0 16,-18 26,-40 10,-22 21,-40 25,-40 3,0 12,-13 19,-30 7,-16 16,-30 21,-30 5,0 9,-6 9,-12 0,-7 10,-28 23,-47 40,-63 65,-105 94,-161 15,-30 33,-60 39,-67 6,-6 17,-25 24,-42 7,-17 16,-31 21,-31 5,0 9,-6 9,-12 0,-7 16,-40 36,-73 50,-82 74,-124 95,-164 10,-18 24,-41 32,-50 7,-9 19,-31 27,-48 7,-18 16,-33 21,-33 5,0 9,-9 9,-20 0,-11 4,-20 8,-20 5,0 17,-19 28,-41 10,-23 23,-47 29,-53 5,-6 18,-27 27,-46 10,-19 22,-42 28,-50 27,-42 90,-153 90,-159 0,-5 47,-80 67,-106 5,-6 23,-41 42,-78 18,-37 37,-67 41,-67 4,0 11,-11 14,-24 3,-14 12,-31 19,-38 6,-7 27,-42 46,-78 18,-36 39,-72 47,-80 7,-8 18,-26 23,-40 6,-14 27,-50 46,-80 19,-30 47,-79 61,-107 14,-29 29,-53 33,-53 5,0 11,-17 15,-38 7,-45 38,-67 85,-60 17,3 31,1 31,-4 0,-4 -4,-8 -9,-8 -5,0 -14,-15 -22,-32 -7,-18 -19,-37 -26,-41 -7,-4 -13,-12 -13,-18 0,-11 -178,-298 -197,-317 -7,-7 -13,-18 -13,-23 0,-6 -13,-30 -30,-54 -16,-24 -30,-48 -30,-54 0,-6 -3,-11 -7,-11 -5,0 -21,-23 -38,-50 -16,-28 -33,-50 -37,-50 -5,0 -16,-16 -25,-35 -9,-19 -20,-35 -25,-35 -4,0 -8,-6 -8,-14 0,-8 -6,-16 -14,-19 -8,-3 -22,-22 -31,-41 -10,-20 -21,-36 -26,-36 -5,0 -9,-6 -9,-14 0,-8 -4,-16 -9,-18 -4,-1 -36,-42 -69,-89 -34,-47 -70,-94 -82,-104 -11,-10 -20,-23 -20,-29 0,-6 -9,-17 -20,-24 -11,-7 -20,-17 -20,-22 0,-6 -18,-29 -40,-52 -22,-24 -40,-46 -40,-49 0,-4 -12,-20 -27,-37 -16,-16 -45,-50 -66,-73 -63,-72 -141,-160 -154,-174 -7,-8 -13,-16 -13,-19 0,-4 -39,-43 -86,-89 -48,-45 -116,-110 -152,-144 -35,-35 -67,-63 -70,-63 -3,0 -12,-7 -21,-15 -47,-42 -60,-53 -94,-74 -20,-12 -37,-27 -37,-32 0,-5 -7,-9 -15,-9 -7,0 -18,-6 -22,-14 -4,-7 -23,-21 -40,-30 -18,-9 -33,-21 -33,-26 0,-6 -6,-10 -13,-10 -7,0 -22,-8 -33,-18 -10,-9 -31,-23 -46,-29 -16,-7 -28,-17 -28,-23 0,-5 -6,-10 -14,-10 -8,0 -21,-6 -28,-13 -32,-32 -294,-165 -413,-209 -27,-10 -72,-25 -100,-33 -27,-7 -68,-20 -90,-29 -22,-8 -54,-15 -71,-16 -17,0 -51,-7 -75,-16 -68,-26 -375,-31 -499,-9 -52,9 -126,21 -165,27 -38,5 -77,16 -85,23 -8,7 -33,17 -55,21 -22,4 -55,15 -73,26 -18,10 -45,18 -60,18 -15,1 -38,7 -52,15 -52,30 -100,11 -100,-39 0,-56 38,-96 93,-96 12,0 33,-9 47,-20 14,-11 37,-20 51,-20 15,0 38,-9 52,-20 14,-11 40,-23 59,-27 18,-3 42,-12 54,-20 11,-7 40,-17 65,-22 52,-11 127,-37 185,-62 23,-11 49,-19 58,-19 10,0 38,-8 64,-19 26,-10 76,-23 112,-30 36,-6 85,-15 110,-20 25,-6 128,-10 230,-10 151,-1 200,3 268,19 46,11 96,20 111,20 16,0 48,7 72,16 24,8 64,19 89,24 50,9 190,58 205,71 5,5 15,9 23,9 17,0 146,62 150,72 2,4 9,8 16,8 6,0 27,8 46,18 91,48 157,86 173,100 9,8 25,20 35,26 63,38 92,59 92,67 0,5 4,9 10,9 14,0 95,69 203,173 33,31 62,57 64,57 18,0 573,563 573,580 0,5 14,24 31,42 59,64 76,83 105,123 35,48 55,73 72,90 6,8 12,16 12,19 0,3 8,14 18,24 28,31 50,59 63,84 7,12 18,29 26,36 7,7 27,35 45,60 18,26 38,53 44,60 7,6 16,21 19,32 3,11 11,20 16,20 5,0 9,7 9,15 0,8 5,15 11,15 5,0 16,15 24,33 8,19 21,39 29,47 9,7 16,19 16,26 0,8 4,14 10,14 5,0 19,19 31,43 12,23 25,44 29,47 3,3 24,34 46,70 21,36 42,67 47,68 4,2 7,8 7,13 0,5 21,42 47,82 88,137 110,172 123,197 7,14 16,27 20,30 6,5 108,192 143,265 11,22 23,42 27,45 4,3 13,22 21,43 7,20 16,37 20,37 4,0 13,16 19,35 6,19 16,35 20,35 5,0 15,18 21,40 7,22 15,40 20,40 8,0 69,123 69,139 0,5 4,11 8,13 8,3 72,119 141,253 14,28 29,52 32,55 4,3 15,24 24,48 10,23 21,42 26,42 5,0 9,7 9,15 0,15 19,55 31,65 3,3 21,37 40,75 19,39 37,72 40,75 3,3 12,17 20,32 80,155 103,199 124,233 14,22 29,51 35,65 5,14 14,32 20,40 5,8 25,44 43,80 31,57 49,92 103,190 8,14 14,31 14,38 0,6 3,12 8,12 4,0 16,17 27,37 11,20 29,46 40,57 11,12 27,31 35,42 13,19 15,-121 13,-1180 -2,-798 -6,-1223 -14,-1266 -5,-36 -16,-129 -23,-207 -12,-125 -17,-147 -38,-175 -14,-18 -31,-48 -39,-65 -8,-18 -17,-33 -21,-33 -4,0 -15,-15 -24,-32 -9,-18 -23,-37 -30,-41 -8,-4 -14,-12 -14,-17 0,-5 -10,-20 -22,-33 -52,-55 -68,-75 -68,-82 0,-4 -8,-13 -17,-20 -13,-9 -18,-32 -21,-83 -4,-67 -3,-72 23,-96 l 28,-26 h 669 c 595,0 671,2 685,16 24,23 11,160 -17,186 -11,10 -20,24 -20,29 0,6 -11,25 -25,43 -14,17 -35,44 -47,60 -13,16 -34,42 -48,57 -14,15 -32,37 -40,49 -8,12 -25,36 -37,53 -13,17 -23,38 -23,47 0,9 -4,20 -10,26 -5,5 -14,48 -19,94 -5,47 -17,139 -26,205 -15,108 -16,242 -11,1360 3,682 10,1287 15,1345 13,159 30,270 46,301 8,15 15,35 15,44 0,9 10,38 23,65 21,46 24,50 59,50 58,0 88,36 88,106 0,46 4,59 23,75 12,10 31,19 42,19 11,0 39,9 63,20 23,10 59,22 80,25 20,4 53,13 72,20 19,8 64,18 99,24 36,6 67,14 70,19 3,5 21,14 38,20 36,12 42,16 112,82 27,25 55,60 62,78 8,17 17,32 21,32 13,0 27,68 37,187 19,208 19,204 -42,265 -116,115 -249,238 -258,238 -5,0 -17,8 -28,18 -10,9 -31,26 -45,37 -15,11 -32,25 -39,30 -69,58 -106,85 -116,85 -6,0 -11,4 -11,9 0,5 -35,26 -77,47 -43,21 -80,41 -83,44 -16,22 -60,28 -202,28 h -157 z m 181,-586 c 9,-9 30,-19 47,-23 16,-4 30,-11 30,-16 0,-5 18,-16 40,-25 22,-9 40,-20 40,-25 0,-5 5,-9 11,-9 12,0 38,-29 39,-42 0,-5 -11,-8 -24,-8 -13,0 -39,-6 -58,-14 -19,-8 -57,-18 -85,-22 -41,-5 -56,-3 -77,12 -14,11 -26,23 -26,27 0,5 -13,25 -29,45 -17,20 -36,57 -45,81 l -14,43 67,-4 c 46,-2 73,-9 84,-20 z m -16,-814 c -3,-3 -12,-4 -19,-1 -8,3 -5,6 6,6 11,1 17,-2 13,-5 z"
              id="path3873"
              inkscape:connector-curvature="0"
              style="stroke:#ed2024;stroke-width:10;stroke-miterlimit:10" />
        <path class="ci"
              stroke-miterlimit="10"
              d="m 12300,11092 c 0,-8 -5,-10 -12,-6 -10,6 -10,4 -3,-7 6,-8 24,-34 40,-59 17,-25 33,-47 38,-48 4,-2 5,-8 1,-13 -3,-5 -1,-9 4,-9 5,0 15,-13 22,-30 7,-16 17,-30 22,-30 5,0 6,-4 3,-10 -3,-5 -1,-10 4,-10 6,0 11,-6 11,-13 0,-7 9,-23 20,-35 12,-12 18,-22 14,-22 -4,0 1,-9 11,-20 10,-11 14,-20 9,-20 -5,0 -4,-4 2,-8 6,-4 24,-32 39,-62 15,-30 32,-58 37,-61 4,-3 11,-16 13,-29 2,-13 8,-26 13,-29 11,-8 77,-144 74,-153 -1,-5 2,-8 6,-8 5,0 19,-26 32,-57 12,-32 29,-65 36,-74 8,-8 14,-25 14,-37 0,-12 5,-22 12,-22 6,0 8,-3 5,-7 -4,-3 -2,-12 4,-20 6,-7 8,-13 3,-13 -5,0 -3,-4 4,-9 7,-4 14,-14 16,-22 1,-8 10,-32 20,-54 10,-22 19,-44 20,-50 1,-5 4,-14 7,-20 4,-5 12,-28 19,-50 7,-22 16,-44 20,-50 5,-5 10,-19 12,-30 1,-11 6,-23 10,-26 5,-3 9,-17 10,-32 1,-15 5,-27 8,-27 7,0 35,-92 32,-102 -1,-5 3,-8 9,-8 6,0 9,-7 6,-15 -4,-8 -2,-17 4,-21 6,-3 8,-12 5,-20 -3,-8 -2,-14 2,-14 5,0 14,-24 21,-52 8,-29 16,-57 20,-63 3,-5 7,-21 9,-35 2,-13 9,-31 15,-39 9,-11 9,-13 0,-8 -7,5 -6,-4 3,-23 9,-16 13,-34 10,-39 -4,-5 -1,-11 5,-13 5,-2 11,-18 11,-36 1,-17 4,-32 7,-32 6,0 12,-29 14,-72 1,-10 4,-18 7,-18 3,0 7,-14 8,-32 2,-18 6,-35 10,-38 4,-3 8,-14 8,-25 1,-20 11,-76 14,-85 1,-3 2,-9 1,-13 -1,-4 3,-17 9,-27 8,-15 8,-20 -2,-20 -6,0 -4,-6 7,-13 13,-10 15,-16 6,-21 -6,-4 -9,-12 -5,-17 3,-6 8,-25 11,-42 2,-18 6,-43 9,-57 2,-14 7,-45 11,-70 3,-25 10,-50 15,-57 5,-7 5,-14 -2,-18 -6,-3 -7,-12 -3,-18 6,-10 12,-54 16,-139 1,-16 4,-28 7,-28 3,0 6,-17 6,-37 3,-111 9,-169 19,-175 6,-5 5,-8 -3,-8 -9,0 -10,-5 -2,-19 7,-14 7,-22 0,-26 -8,-5 -8,-11 0,-20 8,-9 8,-15 0,-20 -6,-3 -7,-12 -3,-18 4,-7 8,-62 9,-123 1,-61 4,-116 8,-123 4,-6 4,-11 -1,-11 -4,0 -7,-47 -7,-105 1,-58 -2,-108 -7,-111 -5,-2 -4,-15 0,-27 5,-14 5,-30 0,-40 -7,-11 -6,-17 1,-17 6,0 8,-5 3,-12 -12,-21 -12,-38 0,-38 8,0 8,-3 2,-8 -6,-4 -11,-20 -11,-37 -3,-57 -13,-180 -14,-180 -1,0 -4,-25 -6,-55 -2,-30 -8,-68 -14,-83 -6,-20 -6,-26 2,-21 7,5 8,3 3,-5 -4,-7 -9,-28 -11,-47 -2,-19 -6,-51 -9,-71 -3,-21 -6,-44 -7,-50 -1,-7 -6,-13 -12,-13 -6,0 -4,-5 4,-10 8,-5 10,-10 4,-10 -6,0 -10,-16 -9,-35 1,-19 -1,-35 -6,-35 -4,0 -6,-11 -4,-25 1,-14 -1,-28 -5,-30 -4,-3 -6,-18 -5,-35 1,-16 -1,-27 -6,-24 -5,3 -10,-9 -10,-25 -1,-30 -4,-46 -9,-56 -1,-3 -3,-13 -4,-22 -1,-10 -4,-22 -7,-28 -4,-5 -5,-18 -4,-27 2,-10 0,-18 -4,-18 -4,0 -8,-15 -9,-32 -2,-18 -7,-35 -12,-36 -6,-2 -8,-7 -6,-11 4,-6 0,-28 -19,-101 -2,-8 -4,-16 -5,-17 -2,-2 -3,-6 -4,-10 -1,-5 -5,-13 -9,-20 -4,-6 -1,-14 5,-16 10,-4 10,-6 0,-6 -7,-1 -10,-5 -7,-11 3,-6 1,-10 -4,-10 -6,0 -10,-3 -9,-7 4,-18 -15,-73 -25,-73 -9,0 -9,-2 0,-8 8,-5 6,-17 -7,-45 -10,-20 -14,-34 -8,-31 5,4 5,-2 -1,-15 -6,-12 -15,-29 -20,-40 -5,-10 -13,-35 -16,-55 -4,-20 -11,-36 -17,-36 -5,0 -6,-4 -3,-10 3,-5 0,-10 -7,-10 -9,0 -9,-3 2,-10 8,-5 10,-10 5,-10 -9,0 -35,-60 -37,-87 -1,-7 -5,-13 -10,-13 -4,0 -7,-3 -6,-7 1,-5 -4,-26 -10,-47 -13,-44 -9,-56 17,-56 9,0 21,-4 27,-9 13,-13 55,-24 53,-14 -1,4 3,22 10,38 7,17 14,35 15,40 1,6 7,20 14,32 7,12 12,29 12,38 0,10 5,13 12,9 7,-4 8,-3 4,4 -9,14 33,142 46,142 5,0 7,4 4,8 -6,10 49,194 56,187 3,-3 4,7 3,22 -1,16 1,33 5,38 4,6 11,26 16,45 11,50 11,50 14,53 1,1 3,9 5,17 10,44 25,109 30,135 4,17 9,37 13,45 3,8 7,24 9,35 4,28 11,60 13,60 1,0 4,16 6,35 3,19 8,42 11,50 3,8 8,26 9,40 7,57 11,78 18,88 4,7 2,12 -5,12 -9,0 -9,4 1,15 6,8 9,19 5,25 -3,5 -1,10 5,10 6,0 8,11 6,27 -3,15 -1,32 4,38 5,6 9,20 10,30 1,75 6,125 11,125 3,0 7,17 8,38 1,20 4,53 8,72 12,70 14,1091 3,1105 -8,10 -8,20 0,36 8,14 9,24 2,28 -6,3 -10,13 -10,21 1,8 0,39 0,68 -2,40 -5,51 -14,46 -10,-6 -10,-5 -1,8 7,8 10,18 6,22 -8,7 -11,33 -14,99 -1,20 -5,37 -9,37 -4,0 -7,14 -6,31 1,16 -1,32 -4,34 -3,2 -5,18 -4,34 1,17 -1,31 -5,31 -4,0 -8,19 -10,42 -1,23 -5,45 -9,48 -4,3 -8,21 -10,40 -3,35 -9,75 -12,75 -1,0 -3,7 -5,15 -14,68 -17,88 -19,108 0,12 -4,22 -9,22 -4,0 -6,3 -6,8 1,4 0,9 -1,12 -1,3 -4,19 -6,35 -3,17 -7,37 -11,45 -3,8 -8,26 -10,40 -2,14 -6,32 -10,40 -3,8 -7,17 -8,20 0,3 -7,30 -14,60 -8,30 -16,60 -20,65 -3,6 -6,12 -6,15 -5,34 -20,77 -29,82 -8,5 -7,8 2,8 10,0 10,4 -2,15 -8,8 -13,24 -11,35 2,11 1,20 -3,20 -4,0 -16,27 -26,60 -11,33 -22,60 -26,60 -4,0 -6,14 -5,30 1,17 -2,30 -7,30 -5,0 -7,4 -4,9 4,5 1,11 -4,13 -6,2 -12,10 -14,18 -4,18 -13,44 -32,87 -8,17 -14,36 -14,42 0,6 -4,11 -10,11 -5,0 -7,7 -4,15 4,8 1,15 -5,15 -6,0 -10,4 -8,8 4,13 -26,82 -35,82 -5,0 -7,4 -4,8 3,5 -2,21 -10,36 -7,16 -14,33 -14,38 0,5 -7,16 -15,25 -8,8 -13,19 -10,24 4,5 1,9 -4,9 -6,0 -10,4 -8,8 3,10 -35,86 -46,90 -4,2 -4,8 -1,14 4,6 3,13 -2,17 -5,3 -20,30 -34,58 -14,29 -28,53 -32,53 -5,0 -8,9 -8,20 0,11 -5,20 -11,20 -5,0 -7,5 -4,10 3,6 1,10 -5,10 -6,0 -8,5 -5,10 3,6 1,10 -4,10 -6,0 -11,4 -11,9 0,5 -19,42 -42,81 -24,40 -56,95 -72,124 -15,28 -31,53 -35,56 -4,3 -17,26 -31,51 -28,54 -59,74 -115,74 -22,0 -43,5 -47,10 -5,6 -8,5 -8,-3 z"
              id="path3875"
              inkscape:connector-curvature="0"
              style="fill:#6d52a2;stroke:#ffffff;stroke-width:5;stroke-miterlimit:10" />
        <path class="ci"
              stroke-miterlimit="10"
              d="m 1249,10089 c -2,-15 -5,-22 -19,-54 -7,-16 -12,-34 -12,-38 1,-4 -4,-20 -13,-36 -8,-16 -11,-31 -8,-35 4,-3 1,-6 -4,-6 -6,0 -10,-11 -8,-25 1,-14 -1,-25 -6,-25 -8,0 -25,-67 -21,-82 1,-5 -2,-8 -7,-8 -4,0 -8,-10 -7,-22 1,-26 -14,-49 -28,-41 -5,3 -4,-2 1,-12 7,-11 6,-29 -3,-54 -7,-20 -13,-46 -14,-58 0,-13 -4,-23 -9,-23 -5,0 -8,-8 -6,-17 1,-10 0,-22 -4,-28 -7,-12 -6,-8 -16,-62 -4,-24 -12,-43 -18,-43 -5,0 -4,-7 3,-15 10,-11 10,-15 0,-15 -6,0 -10,-6 -7,-12 2,-7 0,-23 -4,-36 -5,-13 -11,-37 -14,-55 -4,-17 -11,-35 -18,-39 -9,-6 -8,-8 2,-8 9,0 10,-4 4,-12 -5,-7 -8,-23 -7,-35 0,-13 -2,-23 -6,-23 -5,0 -7,-11 -5,-25 1,-14 -2,-28 -6,-31 -5,-3 -9,-10 -9,-15 0,-6 6,-7 13,-3 9,6 9,4 -1,-8 -7,-9 -15,-32 -17,-53 -3,-20 -8,-44 -13,-53 -4,-9 -7,-34 -7,-54 0,-21 -2,-38 -5,-38 -3,0 -5,-21 -5,-48 0,-26 -4,-52 -8,-58 -4,-7 -9,-42 -10,-78 -1,-36 -6,-66 -10,-66 -5,0 -8,-12 -7,-27 1,-16 1,-30 0,-33 -1,-3 -3,-23 -4,-45 0,-22 -5,-46 -9,-52 -5,-7 -4,-13 1,-13 5,0 9,-7 9,-15 0,-8 -4,-15 -9,-15 -5,0 -7,-4 -3,-9 3,-5 1,-13 -5,-16 -8,-5 -7,-11 1,-21 9,-11 9,-14 0,-14 -8,0 -9,-5 -2,-17 5,-9 6,-26 2,-37 -4,-12 -6,-32 -5,-46 1,-14 -3,-31 -10,-39 -8,-12 -8,-13 2,-7 7,4 12,2 12,-8 0,-8 -5,-18 -10,-21 -8,-5 -7,-11 1,-21 9,-11 8,-14 -2,-14 -11,0 -11,-2 1,-10 8,-5 10,-10 4,-10 -6,0 -11,-7 -11,-15 0,-8 5,-15 11,-15 6,0 5,-4 -2,-9 -17,-11 -17,-21 0,-32 8,-6 9,-9 1,-9 -12,0 -12,-17 0,-37 4,-6 3,-14 -2,-18 -13,-7 -10,-46 3,-64 8,-11 8,-13 0,-8 -7,4 -11,-6 -11,-28 0,-22 4,-32 11,-28 6,4 5,-1 -3,-11 -13,-15 -13,-19 0,-27 8,-5 9,-9 3,-9 -14,0 -14,-31 0,-49 8,-11 8,-13 -1,-8 -9,6 -12,-1 -10,-23 1,-16 6,-30 11,-30 5,0 3,-6 -3,-14 -9,-10 -9,-16 -1,-21 8,-5 7,-11 -1,-22 -10,-12 -10,-16 2,-24 12,-7 12,-9 -1,-9 -12,0 -12,-2 -1,-9 9,-6 10,-10 2,-16 -7,-4 -8,-11 -3,-18 14,-19 13,-59 -1,-50 -7,4 -7,0 1,-10 8,-9 12,-22 9,-29 -2,-7 0,-21 5,-30 6,-13 5,-18 -4,-18 -8,0 -9,-3 -3,-8 6,-4 11,-25 11,-47 2,-64 13,-166 20,-176 3,-5 -1,-9 -8,-9 -8,0 -9,-3 -3,-8 6,-4 10,-20 9,-37 0,-16 2,-34 5,-40 3,-5 6,-24 7,-40 3,-46 11,-92 19,-104 3,-6 0,-11 -7,-11 -8,0 -9,-3 -3,-8 6,-4 12,-24 14,-45 1,-21 6,-51 11,-67 6,-21 5,-30 -3,-30 -9,0 -9,-2 0,-8 10,-6 17,-32 27,-98 2,-11 6,-26 10,-32 4,-7 1,-12 -6,-12 -9,0 -9,-3 2,-10 8,-5 11,-10 5,-10 -5,0 -3,-5 5,-10 11,-7 11,-10 2,-10 -10,0 -10,-5 -1,-21 6,-12 9,-30 6,-40 -3,-10 -1,-17 4,-13 5,3 9,-6 9,-20 0,-33 -1,-30 12,-68 5,-18 11,-42 13,-53 4,-20 10,-46 21,-87 3,-13 7,-32 9,-43 2,-11 4,-20 5,-20 1,0 4,-9 6,-20 8,-34 12,-50 14,-50 1,0 4,-13 6,-30 3,-16 7,-37 10,-45 3,-8 5,-17 5,-20 1,-3 5,-11 11,-17 6,-7 8,-13 5,-13 -4,0 0,-18 8,-39 7,-22 11,-42 8,-45 -4,-3 -1,-6 6,-6 8,0 11,-8 8,-20 -3,-11 -2,-20 2,-20 4,0 8,-6 9,-12 2,-23 8,-43 20,-65 7,-13 10,-23 7,-23 -2,0 4,-22 15,-50 11,-27 18,-50 15,-50 -2,0 2,-12 10,-27 8,-15 12,-30 9,-35 -3,-4 0,-8 6,-8 7,0 10,-7 6,-15 -3,-8 -1,-15 4,-15 6,0 9,-3 8,-7 -1,-5 3,-17 9,-28 6,-11 12,-24 13,-30 6,-26 12,-42 25,-68 8,-15 11,-25 6,-22 -5,3 -4,-6 2,-20 7,-14 16,-25 20,-25 5,0 6,-4 3,-8 -3,-5 4,-25 14,-45 11,-21 17,-37 13,-37 -3,0 2,-10 13,-22 13,-14 14,-19 4,-14 -9,5 -8,2 2,-7 10,-8 15,-17 12,-20 -3,-3 2,-16 10,-29 9,-14 13,-28 9,-31 -3,-4 -1,-7 5,-7 7,0 12,-4 12,-10 0,-10 52,-131 70,-162 6,-10 10,-25 10,-33 0,-8 4,-15 9,-15 8,0 31,-51 30,-67 -1,-3 3,-9 8,-12 4,-3 26,-41 48,-85 22,-43 45,-80 51,-83 16,-6 81,60 76,78 -3,7 -8,16 -11,19 -3,3 -21,38 -40,78 -19,39 -39,72 -45,72 -5,0 -6,3 -3,6 4,4 -4,28 -17,53 -27,51 -73,150 -77,166 -1,6 -9,16 -16,23 -7,8 -11,18 -7,23 3,6 0,17 -7,25 -7,9 -14,23 -16,32 -1,9 -6,18 -12,20 -5,2 -8,9 -5,16 3,7 -2,19 -11,26 -8,7 -15,18 -15,25 0,7 -8,30 -17,51 -9,22 -18,46 -19,54 -2,8 -7,23 -13,35 -5,11 -20,47 -33,80 -12,33 -26,61 -30,63 -4,2 -4,10 -1,18 3,8 0,20 -6,27 -6,8 -13,24 -15,38 -3,13 -5,25 -7,27 -1,1 -2,6 -3,11 0,5 -4,13 -8,17 -5,4 -8,16 -8,26 0,10 -4,18 -9,18 -6,0 -8,8 -6,19 2,10 -3,31 -11,45 -7,15 -15,37 -16,49 -2,12 -7,27 -11,34 -4,6 -8,23 -9,37 -1,14 -7,26 -13,26 -5,0 -3,5 5,10 13,8 13,10 -2,10 -11,0 -15,6 -11,20 3,11 1,20 -3,20 -5,0 -10,13 -11,28 -3,39 -7,56 -14,62 -4,3 -8,21 -10,40 -2,19 -7,38 -11,41 -4,3 -10,19 -11,36 -2,16 -7,35 -11,42 -4,6 -1,11 6,11 9,0 10,3 2,8 -11,7 -32,83 -37,137 -2,17 -6,35 -10,41 -3,6 -8,28 -11,50 -2,21 -7,50 -11,64 -3,14 -8,39 -10,55 -2,17 -4,30 -5,30 -3,0 -11,57 -13,93 0,17 -4,32 -7,32 -4,0 -11,60 -13,118 -1,12 -4,22 -7,22 -3,0 -6,10 -7,23 -2,69 -11,145 -17,155 -4,7 -1,12 6,12 9,0 9,3 2,8 -10,6 -14,41 -18,164 0,21 -5,38 -9,38 -5,0 -5,6 -1,12 10,16 13,48 4,48 -8,0 -9,49 -9,385 -1,281 1,334 13,353 3,6 2,13 -4,17 -6,4 -7,11 -4,17 7,11 10,62 13,176 1,40 4,51 14,46 9,-6 9,-5 0,8 -7,8 -10,18 -7,21 4,3 8,30 10,59 5,103 8,128 14,128 6,0 11,45 14,123 0,15 4,27 8,27 4,0 6,8 6,18 -1,9 2,40 7,67 4,28 8,57 9,65 1,9 5,21 10,28 4,6 4,12 0,12 -3,0 -1,7 6,15 7,8 8,15 3,15 -5,0 -10,7 -10,15 0,8 4,12 9,9 4,-3 8,5 9,18 0,13 3,32 5,43 3,11 6,29 7,40 2,11 5,25 8,30 3,6 4,20 3,33 0,12 3,22 8,22 6,0 8,7 5,15 -4,8 -2,17 3,20 5,3 7,12 3,20 -3,8 0,15 6,15 6,0 10,3 10,8 -4,24 2,72 9,69 4,-3 8,13 9,35 2,23 7,46 13,53 5,6 7,14 4,17 -3,3 1,21 9,39 7,19 12,40 10,47 -3,6 -1,12 4,12 8,0 12,15 15,58 1,6 5,12 9,12 4,0 6,9 4,20 -2,11 0,20 4,20 8,0 18,35 23,78 1,6 5,12 10,12 5,0 6,5 3,10 -4,6 -1,17 5,25 7,8 10,15 7,15 -3,0 5,28 19,62 31,80 32,109 2,104 -13,-2 -35,0 -50,5 -16,4 -29,4 -29,-2 z"
              id="path3877"
              inkscape:connector-curvature="0"
              style="fill:#6d52a2;stroke:#ffffff;stroke-width:5;stroke-miterlimit:10" />
        <path class="ci"
              stroke-miterlimit="10"
              d="m 13936,9089 c -16,-4 -33,-6 -37,-3 -10,6 -31,-31 -22,-40 7,-7 14,-46 16,-88 0,-16 3,-28 7,-28 3,0 6,-10 7,-22 2,-61 7,-94 17,-107 9,-12 8,-13 -4,-6 -12,7 -13,6 -4,-6 10,-13 16,-54 18,-121 1,-16 4,-28 7,-28 3,0 5,-11 3,-25 -1,-14 1,-39 6,-55 6,-21 5,-30 -3,-30 -8,0 -8,-3 -2,-8 6,-4 10,-22 10,-40 -1,-19 3,-36 7,-38 5,-3 4,-14 -2,-24 -6,-10 -6,-21 -2,-24 8,-5 14,-87 16,-238 0,-51 5,-88 11,-88 6,0 3,-5 -5,-10 -12,-8 -12,-10 -1,-10 11,0 11,-3 0,-16 -7,-9 -9,-18 -3,-22 12,-9 16,-32 6,-32 -5,0 -9,-7 -9,-15 0,-8 3,-15 6,-15 8,0 6,-84 -3,-98 -4,-7 -3,-12 3,-12 7,0 7,-8 1,-25 -7,-18 -6,-25 3,-25 8,0 8,-3 -2,-9 -11,-7 -11,-9 0,-14 9,-3 9,-6 2,-6 -8,-1 -9,-10 -3,-31 5,-17 6,-28 2,-26 -4,2 -7,-35 -7,-82 0,-48 -2,-91 -4,-96 -2,-5 -5,-30 -5,-55 -1,-25 -5,-51 -9,-58 -4,-6 -3,-15 3,-18 7,-4 7,-12 2,-18 -4,-7 -8,-38 -8,-69 1,-32 -2,-58 -6,-58 -4,0 -5,-18 -3,-40 2,-23 1,-39 -3,-36 -4,2 -8,-10 -8,-27 -3,-76 -8,-113 -17,-131 -7,-14 -6,-17 5,-10 10,6 11,5 2,-7 -6,-8 -12,-30 -13,-49 -6,-63 -8,-85 -10,-85 -4,0 -11,-39 -13,-67 0,-15 -4,-26 -7,-24 -3,2 -6,-10 -7,-27 -1,-18 -4,-45 -8,-62 -3,-16 -9,-48 -12,-70 -4,-22 -10,-42 -16,-43 -5,-2 -4,-10 3,-18 6,-8 7,-14 2,-14 -10,0 -12,-8 -15,-55 -1,-14 -5,-25 -9,-25 -4,0 -6,-8 -4,-17 1,-10 -4,-33 -11,-52 -8,-19 -12,-36 -9,-39 2,-2 0,-13 -6,-24 -6,-11 -11,-32 -11,-49 -1,-16 -5,-29 -10,-29 -5,0 -7,-4 -3,-9 3,-5 1,-12 -4,-15 -5,-4 -8,-14 -6,-24 1,-9 -2,-26 -8,-37 -6,-11 -11,-31 -13,-45 -1,-14 -2,-29 -3,-33 -1,-5 -5,-6 -9,-3 -4,2 -7,-8 -6,-22 0,-15 -3,-30 -8,-33 -5,-3 -10,-16 -11,-27 -1,-12 -5,-22 -10,-22 -4,0 -6,-4 -2,-10 3,-5 -1,-25 -9,-45 -8,-19 -12,-35 -9,-35 3,0 0,-7 -7,-15 -7,-8 -10,-15 -6,-15 4,0 0,-10 -7,-22 -8,-13 -13,-30 -12,-38 0,-8 -3,-18 -8,-21 -4,-3 -10,-19 -13,-34 -3,-16 -10,-35 -16,-42 -6,-7 -7,-13 -3,-13 4,0 2,-6 -4,-14 -7,-8 -13,-22 -15,-32 -5,-24 -45,-125 -55,-139 -4,-5 -7,-17 -6,-25 0,-8 -5,-21 -12,-28 -7,-8 -11,-18 -8,-23 4,-5 1,-9 -5,-9 -7,0 -10,-6 -7,-14 3,-8 -3,-26 -14,-39 -10,-14 -19,-30 -19,-36 0,-6 -12,-36 -27,-68 -15,-32 -27,-60 -28,-63 0,-3 -22,-50 -50,-105 -27,-55 -49,-103 -50,-107 0,-4 -7,-16 -16,-26 -8,-10 -14,-23 -11,-30 2,-7 -1,-12 -7,-12 -6,0 -11,-7 -11,-15 0,-8 -5,-15 -12,-15 -6,0 -8,-3 -5,-7 4,-3 2,-12 -4,-20 -6,-7 -8,-13 -3,-13 5,0 5,-4 -1,-8 -12,-9 -26,-31 -61,-97 -14,-27 -32,-57 -40,-66 -8,-9 -12,-18 -9,-21 3,-3 -1,-11 -10,-18 -8,-7 -15,-18 -15,-25 0,-7 -7,-18 -15,-25 -8,-7 -13,-16 -10,-20 3,-4 -2,-13 -10,-20 -8,-7 -15,-19 -15,-26 0,-8 -4,-14 -10,-14 -5,0 -16,-16 -24,-35 -8,-19 -20,-35 -26,-35 -6,0 -8,-4 -5,-10 3,-5 1,-10 -5,-10 -6,0 -9,-4 -6,-9 4,-5 3,-11 -1,-13 -10,-4 -43,-53 -62,-90 -8,-15 -17,-26 -20,-23 -4,2 -8,-10 -9,-26 -1,-18 8,-44 24,-69 25,-37 28,-39 40,-23 7,10 14,24 14,31 0,6 4,12 8,12 5,0 17,16 28,35 10,19 22,35 26,35 5,0 8,7 8,15 0,8 4,15 9,15 5,0 13,10 17,23 4,12 10,24 13,27 4,3 25,34 46,70 22,36 45,71 52,78 7,8 11,18 8,23 -4,5 -2,9 3,9 6,0 15,14 21,30 5,16 15,30 22,30 7,0 10,3 6,6 -3,3 5,24 19,45 13,21 24,43 24,49 0,5 5,10 12,10 6,0 8,3 5,6 -4,4 2,19 13,34 11,16 20,32 20,38 0,5 7,15 15,22 9,7 13,15 11,18 -3,3 3,17 12,31 22,32 46,84 44,94 -1,4 3,7 9,7 5,0 8,4 5,9 -4,5 -3,11 1,13 14,5 68,125 65,141 -1,4 3,7 9,7 5,0 8,4 5,9 -3,4 3,16 14,26 11,10 17,22 14,26 -3,5 7,33 21,61 15,29 29,62 31,72 2,11 9,23 15,26 6,4 9,9 8,11 -1,2 3,20 11,39 7,19 14,37 15,40 5,13 19,48 33,80 8,19 14,39 13,43 -1,5 5,20 13,35 12,23 25,52 31,72 1,3 7,25 15,50 7,25 18,50 23,57 5,7 6,16 3,22 -3,5 -2,11 4,13 5,1 11,15 12,31 1,15 6,27 11,27 5,0 7,7 3,15 -3,8 -2,15 3,15 4,0 8,7 9,15 1,8 3,22 4,30 1,8 5,15 9,15 4,0 6,9 4,20 -2,11 1,20 6,20 6,0 8,4 4,9 -3,5 -1,12 5,16 6,4 8,10 5,15 -3,5 0,21 6,37 7,15 13,33 15,38 5,20 14,61 20,90 4,17 10,35 14,40 4,6 6,18 5,28 -2,9 0,17 4,17 4,0 8,11 9,25 3,45 5,55 12,55 3,0 7,11 8,25 3,46 5,55 13,55 4,0 6,9 4,20 -2,11 0,22 5,25 4,3 6,14 3,25 -3,11 -1,20 4,20 6,0 9,11 8,25 -2,14 0,25 4,25 4,0 7,8 7,18 1,9 4,33 8,52 4,19 7,45 7,58 0,12 3,22 8,22 4,0 7,11 6,25 -2,14 1,27 6,31 5,3 5,12 -1,23 -5,10 -5,22 0,27 5,5 11,29 14,54 3,25 9,59 12,75 4,17 7,47 8,67 1,21 4,38 8,38 4,0 5,11 2,25 -2,14 -1,25 3,25 5,0 7,23 6,52 -1,29 3,58 9,65 7,9 7,13 -1,13 -7,0 -9,5 -4,13 4,6 9,26 10,42 1,17 2,49 4,73 1,23 7,42 13,42 7,0 8,3 1,8 -12,8 -13,27 -3,37 4,4 3,16 -3,26 -5,11 -6,19 -2,19 4,0 9,11 9,25 1,16 -2,22 -10,18 -8,-5 -8,-3 1,8 15,19 18,625 2,634 -7,5 -6,12 2,22 10,12 10,16 -2,24 -8,5 -9,9 -3,9 12,0 12,29 0,48 -4,7 -2,12 4,12 7,0 8,6 0,19 -13,26 -13,34 3,25 8,-5 8,-3 -2,9 -7,9 -11,26 -8,36 3,11 0,22 -7,25 -8,3 -7,7 3,14 8,6 9,12 3,16 -6,3 -9,18 -6,31 3,15 0,25 -7,25 -8,0 -8,4 1,15 7,8 9,15 4,15 -5,0 -10,21 -11,48 -2,72 -8,116 -17,130 -4,7 -2,12 6,12 9,0 9,3 2,8 -6,4 -10,17 -9,30 1,13 -2,25 -7,28 -5,3 -3,13 4,22 10,12 10,14 1,8 -9,-5 -13,1 -15,21 -2,37 -6,72 -12,103 -3,14 -8,45 -11,70 -8,57 -21,70 -59,59 z"
              id="path3879"
              inkscape:connector-curvature="0"
              style="fill:#6d52a2;stroke:#ffffff;stroke-width:5;stroke-miterlimit:10" />
        <path class="ci"
              stroke-miterlimit="10"

              d="m 2010,5942 c 0,-8 -121,-48 -132,-44 -5,1 -8,-2 -8,-7 0,-6 -9,-8 -20,-6 -11,2 -20,0 -20,-5 0,-4 -11,-7 -25,-5 -14,1 -25,-3 -25,-9 0,-6 -5,-4 -10,4 -7,11 -10,11 -10,2 0,-7 -5,-10 -10,-7 -14,9 -24,-21 -14,-42 4,-10 8,-25 8,-33 0,-8 4,-18 8,-21 5,-3 10,-14 12,-25 3,-10 11,-35 20,-55 8,-20 12,-39 9,-43 -4,-3 -1,-6 5,-6 7,0 11,-3 10,-7 -1,-5 3,-18 10,-29 6,-12 8,-24 5,-28 -3,-3 -1,-6 5,-6 7,0 11,-3 10,-7 -2,-10 17,-60 37,-96 10,-19 11,-26 2,-22 -6,4 -3,-1 7,-9 11,-9 17,-16 13,-16 -4,0 0,-15 10,-32 9,-18 17,-35 18,-38 0,-3 15,-33 33,-67 17,-35 29,-63 25,-63 -3,0 1,-8 9,-17 9,-10 19,-29 23,-43 4,-13 14,-30 21,-38 8,-7 12,-18 9,-23 -4,-5 -1,-9 5,-9 6,0 8,-4 5,-10 -3,-5 -3,-10 2,-10 4,0 14,-15 22,-32 8,-18 18,-36 23,-39 5,-3 10,-16 11,-27 1,-12 5,-22 9,-22 9,0 32,-50 30,-62 -1,-5 2,-8 7,-8 5,0 22,-25 37,-55 16,-30 32,-55 37,-55 4,0 5,-4 2,-10 -3,-5 -1,-10 5,-10 6,0 9,-4 6,-9 -4,-5 -3,-11 1,-13 5,-1 21,-23 37,-48 16,-25 37,-57 48,-72 10,-15 18,-32 18,-38 0,-5 4,-10 8,-10 5,0 15,-12 23,-27 8,-16 22,-37 32,-47 9,-11 17,-25 17,-32 0,-6 7,-15 16,-18 9,-4 14,-9 11,-12 -5,-5 10,-27 41,-59 6,-8 12,-17 12,-20 0,-9 60,-87 75,-97 6,-5 6,-8 0,-8 -6,0 -6,-3 0,-8 6,-4 33,-36 60,-72 27,-36 54,-70 60,-76 5,-6 17,-21 25,-34 8,-12 32,-40 52,-63 20,-23 35,-44 32,-48 -2,-4 4,-10 14,-13 10,-3 25,-18 34,-33 9,-16 37,-48 62,-73 25,-25 46,-51 46,-58 0,-7 5,-10 10,-7 6,3 10,1 10,-5 0,-7 92,-103 205,-215 113,-112 205,-201 205,-198 0,3 24,-18 53,-46 28,-28 57,-51 63,-51 6,0 17,-11 24,-25 7,-13 16,-23 20,-22 6,2 55,-36 118,-92 15,-13 44,-34 65,-47 20,-14 37,-28 37,-32 0,-4 16,-16 35,-26 19,-11 35,-24 35,-29 0,-6 3,-8 6,-4 6,5 44,-24 73,-55 8,-10 21,-18 28,-18 7,0 22,-8 32,-17 39,-35 50,-43 66,-43 8,0 15,-7 15,-16 0,-8 5,-12 10,-9 5,3 10,1 10,-4 0,-6 7,-11 15,-11 8,0 15,-4 15,-10 0,-5 7,-10 15,-10 8,0 15,-4 15,-10 0,-5 7,-10 15,-10 8,0 15,-4 15,-10 0,-5 5,-10 10,-10 6,0 29,-13 52,-30 22,-17 47,-30 55,-30 7,0 13,-7 13,-15 0,-9 6,-12 15,-9 8,4 15,2 15,-3 0,-6 20,-20 45,-33 25,-13 45,-27 45,-32 0,-5 4,-7 9,-3 5,3 15,0 23,-7 7,-7 27,-20 43,-28 17,-8 32,-17 35,-21 3,-3 20,-11 38,-18 17,-8 32,-18 32,-23 0,-5 4,-7 9,-4 5,3 20,-3 33,-14 14,-11 28,-16 32,-13 3,3 6,1 6,-6 0,-7 4,-10 9,-6 5,3 16,-2 24,-10 9,-8 23,-15 31,-15 9,0 16,-4 16,-10 0,-5 9,-10 20,-10 11,0 20,-4 20,-9 0,-8 21,-17 59,-26 8,-2 17,-9 21,-15 4,-7 10,-11 14,-11 23,3 36,0 31,-9 -3,-6 0,-10 8,-10 8,0 27,-6 43,-14 45,-23 88,-39 97,-38 4,1 7,-3 7,-8 0,-6 6,-10 13,-8 6,1 22,-3 35,-10 12,-7 22,-10 22,-7 0,4 7,-1 16,-9 8,-9 20,-14 25,-11 5,4 9,1 9,-5 0,-7 7,-10 15,-6 8,3 15,1 15,-5 0,-6 5,-7 10,-4 6,3 10,1 10,-4 0,-6 3,-10 8,-9 13,3 92,-25 92,-33 0,-5 7,-6 15,-3 8,4 15,1 15,-6 0,-6 4,-9 10,-5 5,3 17,2 27,-3 55,-29 94,-42 87,-30 -6,10 -5,11 7,1 23,-19 142,-57 192,-62 5,-1 6,-4 4,-8 -3,-5 11,-9 31,-11 20,-1 38,-6 42,-11 3,-4 13,-7 23,-5 9,1 17,-1 17,-6 0,-5 8,-7 18,-5 9,1 24,-1 33,-6 9,-4 31,-11 49,-14 18,-3 41,-10 50,-15 10,-5 27,-7 39,-5 11,2 21,0 21,-6 0,-5 3,-8 8,-8 4,1 10,0 15,-1 4,-1 16,-4 27,-5 11,-1 21,-3 23,-5 1,-1 11,-3 22,-5 36,-6 50,-10 63,-18 6,-5 12,-5 12,0 0,4 5,1 10,-7 7,-11 10,-11 10,-2 0,10 5,10 20,2 10,-6 23,-9 27,-8 4,0 20,-2 34,-6 14,-4 34,-9 45,-11 10,-2 19,-4 19,-5 0,-1 42,-8 90,-14 12,-1 25,-5 30,-7 10,-5 46,-10 98,-13 15,0 27,-3 27,-6 0,-3 15,-7 33,-8 59,-5 84,-9 95,-16 7,-4 12,-1 12,6 0,9 3,9 8,2 4,-6 14,-11 22,-12 27,-1 124,-11 160,-16 19,-3 59,-6 87,-7 31,-1 50,-6 47,-11 -4,-7 0,-7 12,0 11,5 28,8 39,6 62,-13 527,-20 544,-9 5,3 13,1 16,-5 5,-8 11,-7 21,1 11,9 14,9 14,-1 0,-10 3,-10 15,0 12,10 15,10 15,-1 0,-11 2,-11 8,-2 4,7 18,11 31,8 13,-2 32,0 42,5 12,7 20,7 24,-1 4,-6 14,-7 24,-4 9,4 39,8 66,10 134,8 150,10 165,25 18,18 34,50 32,63 -1,4 3,7 9,7 5,0 7,4 4,10 -3,5 -1,10 4,10 6,0 11,7 11,15 0,8 5,15 10,15 6,0 10,5 10,11 0,6 7,17 15,26 8,8 13,19 10,24 -4,5 2,9 11,9 10,0 15,3 11,6 -5,6 15,31 78,99 31,33 61,48 105,50 14,1 32,5 40,9 8,3 38,8 66,10 28,2 56,6 62,10 6,3 23,8 39,10 15,3 39,7 53,11 14,3 36,8 50,10 14,2 36,7 50,10 14,4 36,8 50,10 14,2 26,4 28,5 1,1 7,4 12,5 6,1 12,4 15,5 7,3 85,20 115,25 3,0 11,4 18,8 6,5 17,5 22,2 6,-3 10,-1 10,5 0,6 4,9 9,5 5,-3 13,0 16,6 4,5 13,8 20,5 7,-2 23,3 36,11 12,9 19,12 16,6 -4,-6 10,-5 34,3 22,8 45,12 50,9 5,-4 9,-2 9,3 0,9 47,27 63,24 4,-1 7,2 7,8 0,5 7,7 15,4 8,-4 21,-1 29,5 7,6 16,8 19,4 4,-3 7,0 7,7 0,7 3,11 6,8 3,-3 35,5 72,19 97,36 120,42 128,35 4,-4 4,-1 0,6 -4,7 -1,12 8,13 16,1 28,4 44,9 4,1 10,2 15,1 4,0 7,3 7,9 0,6 3,9 8,8 4,-1 17,3 28,10 12,6 24,8 28,5 3,-3 6,0 6,7 0,7 3,11 6,7 4,-3 23,2 43,12 20,11 41,20 46,21 22,6 60,25 67,35 4,5 8,6 8,1 0,-5 7,-2 17,5 9,8 19,13 22,12 3,-1 27,9 54,22 26,13 47,22 47,18 0,-3 6,-1 13,5 19,16 127,72 127,66 0,-3 7,2 16,10 8,9 19,14 24,11 4,-3 13,2 20,10 7,8 18,15 25,15 7,0 18,7 25,15 7,8 21,15 31,15 11,0 19,4 19,8 0,5 23,19 50,32 28,13 50,26 50,29 0,8 51,31 68,31 7,0 11,4 8,9 -6,8 30,25 47,22 5,-1 6,2 4,7 -3,4 19,21 49,37 30,16 54,33 54,37 0,4 7,8 15,8 7,0 19,8 24,18 6,9 11,13 11,8 0,-5 6,-3 13,3 9,7 24,8 45,2 17,-5 33,-7 36,-3 3,3 6,1 6,-5 0,-5 6,-10 13,-11 27,-2 70,-17 108,-38 14,-7 29,-11 33,-7 3,3 6,1 6,-5 0,-7 3,-11 8,-10 4,1 18,-5 32,-14 14,-9 32,-18 40,-20 8,-2 18,-7 22,-12 4,-6 13,-4 22,3 9,8 16,10 16,5 0,-5 5,-1 11,9 5,9 14,17 19,17 8,0 40,25 81,63 10,9 19,14 19,10 0,-5 5,0 11,10 5,9 16,17 23,17 8,0 17,7 20,16 4,9 9,14 12,11 3,-3 19,8 35,24 16,16 29,26 29,22 0,-4 5,0 11,10 6,9 14,15 19,12 5,-3 11,3 15,14 3,11 12,21 19,23 15,3 99,72 158,130 21,21 38,35 38,33 0,-8 266,250 303,294 15,18 27,30 27,26 0,-4 12,8 27,27 15,18 43,48 61,66 18,17 31,32 28,32 -3,0 17,22 44,50 27,28 47,50 44,50 -3,0 7,11 22,25 15,14 24,25 21,25 -3,0 5,12 18,26 14,15 25,31 25,35 0,5 7,9 16,9 8,0 12,5 9,10 -3,6 -2,10 4,10 5,0 13,9 16,20 4,11 11,18 16,15 5,-4 9,0 9,7 0,7 16,31 35,53 54,63 55,64 55,69 0,7 70,99 80,106 16,11 -11,51 -45,67 -19,9 -35,20 -35,25 0,4 -6,8 -13,8 -7,0 -24,10 -37,23 -14,12 -27,22 -30,22 -3,0 -14,7 -25,17 -11,9 -24,18 -30,19 -5,1 -16,10 -23,20 -12,17 -15,17 -28,5 -8,-8 -14,-19 -14,-24 0,-6 -3,-12 -8,-14 -4,-1 -34,-39 -67,-83 -68,-92 -68,-91 -98,-126 -12,-14 -40,-48 -62,-75 -22,-27 -52,-61 -67,-76 -14,-16 -23,-28 -20,-28 12,0 -22,-20 -35,-20 -6,0 -15,9 -18,20 -4,11 -11,18 -16,15 -5,-4 -9,-1 -9,4 0,27 -31,3 -127,-96 -57,-58 -103,-108 -103,-109 0,-3 -44,-45 -167,-161 -105,-99 -132,-123 -140,-126 -4,-1 -29,-22 -55,-47 -57,-53 -55,-51 -138,-115 -36,-28 -67,-52 -70,-55 -3,-3 -27,-21 -53,-40 -27,-19 -58,-44 -70,-55 -12,-11 -46,-35 -74,-54 -29,-18 -53,-38 -53,-44 0,-6 -3,-8 -6,-5 -3,4 -63,-32 -132,-78 -70,-46 -133,-84 -139,-84 -7,0 -13,-4 -13,-9 0,-5 -13,-14 -30,-21 -16,-7 -30,-17 -30,-22 0,-5 -4,-7 -9,-3 -6,3 -14,-3 -20,-12 -6,-10 -11,-14 -11,-10 0,5 -13,-1 -30,-13 -16,-12 -30,-18 -30,-13 0,4 -7,-1 -16,-12 -8,-11 -18,-19 -22,-19 -8,1 -54,-18 -62,-26 -11,-12 -51,-30 -65,-30 -8,0 -15,-4 -15,-10 0,-5 -7,-10 -15,-10 -8,0 -15,-5 -15,-11 0,-5 -4,-7 -10,-4 -5,3 -10,1 -10,-5 0,-6 -4,-9 -9,-5 -5,3 -12,1 -16,-5 -3,-5 -13,-10 -21,-10 -9,0 -22,-7 -31,-15 -8,-8 -19,-13 -24,-10 -5,4 -9,2 -9,-3 0,-5 -10,-13 -22,-17 -13,-4 -25,-8 -28,-10 -3,-1 -23,-10 -45,-20 -22,-10 -42,-19 -45,-20 -3,0 -16,-7 -30,-15 -14,-8 -30,-15 -36,-16 -6,-1 -28,-9 -48,-18 -20,-9 -52,-23 -72,-32 -20,-9 -42,-17 -48,-18 -6,-1 -21,-8 -33,-14 -13,-7 -23,-10 -23,-7 0,3 -11,-2 -25,-11 -14,-9 -25,-13 -25,-10 0,4 -14,0 -30,-9 -16,-9 -30,-13 -30,-10 0,3 -10,0 -22,-7 -13,-7 -27,-13 -33,-14 -5,0 -23,-6 -38,-13 -16,-6 -32,-9 -37,-6 -5,3 -10,1 -12,-5 -1,-5 -14,-11 -28,-14 -14,-2 -26,-5 -27,-7 -2,-1 -7,-2 -12,-3 -5,0 -13,-4 -17,-8 -4,-5 -18,-8 -30,-8 -13,0 -25,-4 -29,-10 -3,-5 -12,-7 -20,-3 -8,3 -15,0 -15,-6 0,-6 -5,-11 -11,-11 -5,0 -7,6 -3,13 5,7 1,6 -10,-3 -10,-8 -28,-15 -39,-17 -12,-2 -33,-7 -47,-12 -14,-5 -50,-15 -80,-21 -30,-6 -62,-14 -70,-17 -8,-3 -19,-7 -25,-8 -5,-1 -12,-3 -15,-4 -8,-4 -52,-11 -77,-13 -13,-1 -23,-5 -23,-8 0,-3 -11,-7 -25,-8 -14,-1 -36,-3 -50,-4 -14,-1 -25,-5 -25,-8 0,-6 -38,-11 -82,-11 -10,0 -18,-4 -18,-8 0,-4 -16,-7 -35,-6 -19,1 -35,-1 -35,-6 0,-4 -8,-6 -17,-5 -10,2 -36,-1 -58,-6 -22,-5 -55,-10 -72,-10 -18,0 -33,-4 -33,-9 0,-5 -11,-4 -25,1 -14,5 -25,6 -25,2 0,-5 -10,-8 -22,-8 -13,-1 -40,-4 -61,-8 -27,-4 -36,-3 -31,5 3,6 -4,5 -17,-3 -13,-8 -42,-13 -64,-12 -48,1 -79,-20 -65,-46 5,-10 7,-20 3,-23 -3,-4 0,-13 6,-21 10,-12 8,-13 -10,-9 -12,4 -20,2 -16,-3 3,-5 -10,-10 -29,-10 -19,0 -34,4 -34,10 0,5 -7,1 -16,-10 -8,-10 -13,-14 -10,-7 5,8 -6,11 -34,10 -22,-1 -40,-4 -40,-7 0,-8 -505,-5 -518,4 -7,4 -12,2 -12,-4 0,-6 -5,-8 -12,-3 -7,4 -30,8 -50,8 -20,0 -40,3 -43,7 -4,3 -20,2 -36,-2 -16,-5 -29,-5 -29,-1 0,4 -22,7 -50,6 -29,-1 -50,4 -50,10 0,5 -5,3 -10,-5 -6,-9 -10,-11 -10,-3 0,7 -7,10 -15,7 -8,-3 -19,-3 -25,1 -6,4 -43,8 -81,10 -39,2 -76,9 -83,14 -7,6 -17,6 -26,1 -8,-5 -21,-5 -32,1 -10,5 -18,7 -18,4 0,-3 -9,-1 -20,5 -15,8 -20,8 -20,-1 0,-8 -4,-8 -12,-2 -7,6 -20,10 -28,11 -8,0 -33,3 -55,8 -22,4 -50,7 -62,8 -13,0 -23,3 -23,6 0,3 -8,6 -17,7 -31,3 -72,11 -82,17 -5,4 -12,0 -14,-6 -4,-10 -6,-10 -6,0 -1,6 -14,12 -30,12 -16,0 -32,6 -34,13 -4,9 -6,8 -6,-2 -1,-10 -5,-11 -13,-3 -7,6 -16,11 -20,11 -5,1 -9,1 -10,2 -2,0 -14,2 -28,4 -32,6 -64,13 -67,15 -2,2 -6,3 -10,4 -5,1 -14,5 -22,10 -10,7 -12,5 -6,-5 6,-11 5,-12 -6,-2 -7,7 -26,13 -41,13 -15,0 -28,4 -28,10 0,5 -6,9 -12,7 -7,-1 -12,4 -10,11 1,7 3,20 5,30 1,9 6,23 11,30 11,18 -11,41 -35,37 -10,-2 -19,0 -19,4 0,4 -6,8 -12,9 -24,2 -43,8 -67,21 -16,9 -21,9 -16,1 4,-7 -5,-6 -23,4 -16,8 -32,12 -36,9 -3,-4 -6,-1 -6,4 0,6 -8,10 -17,9 -10,-2 -20,0 -23,5 -3,4 -17,10 -30,12 -14,3 -42,12 -62,20 -20,8 -39,13 -42,9 -3,-3 -6,0 -6,7 0,7 -4,10 -9,7 -5,-3 -21,1 -37,9 -15,7 -31,12 -36,9 -4,-3 -8,0 -8,5 0,6 -9,11 -20,11 -11,0 -20,4 -20,9 0,5 -8,8 -17,6 -10,-1 -26,5 -37,14 -10,9 -19,15 -20,13 -1,-3 -17,1 -51,14 -11,4 -23,6 -27,6 -5,-1 -8,3 -8,8 0,6 -11,10 -25,10 -14,0 -25,5 -25,10 0,6 -6,10 -13,10 -7,0 -32,9 -55,20 -22,11 -46,20 -52,20 -5,0 -10,5 -10,10 0,6 -7,10 -15,10 -9,0 -27,7 -40,16 -14,9 -25,13 -25,10 0,-4 -12,1 -27,11 -14,9 -33,18 -42,20 -9,1 -17,7 -19,12 -2,6 -12,11 -23,11 -10,0 -19,5 -19,10 0,6 -8,10 -19,10 -10,0 -24,7 -31,15 -7,8 -21,15 -31,15 -11,0 -19,4 -19,8 0,5 -19,17 -42,28 -24,10 -49,24 -56,31 -7,7 -17,13 -22,13 -12,0 -193,111 -201,122 -3,5 -8,8 -11,6 -4,-3 -137,79 -148,91 -3,4 -17,12 -32,20 -16,8 -28,18 -28,23 0,4 -7,8 -15,8 -8,0 -15,5 -15,10 0,6 -7,10 -15,10 -8,0 -15,5 -15,10 0,6 -6,10 -14,10 -8,0 -17,7 -20,16 -4,9 -9,14 -12,11 -5,-5 -27,10 -59,41 -8,6 -16,12 -20,12 -3,0 -20,13 -38,30 -18,16 -38,30 -44,30 -7,0 -13,4 -13,8 0,4 -21,24 -48,44 -26,20 -57,45 -69,55 -12,10 -40,33 -62,52 -51,41 -124,105 -169,149 -18,17 -35,32 -37,32 -9,0 -265,261 -265,270 0,6 -4,8 -10,5 -5,-3 -10,-2 -10,2 0,5 -22,33 -50,62 -27,29 -73,81 -102,115 -29,33 -59,69 -68,78 -28,32 -40,47 -40,53 0,3 -11,16 -25,29 -14,13 -25,26 -25,30 0,4 -6,13 -12,20 -7,7 -24,27 -38,45 -14,18 -31,39 -37,46 -7,8 -13,18 -13,24 0,6 -4,11 -10,11 -5,0 -10,7 -10,16 0,8 -4,12 -10,9 -5,-3 -10,1 -10,9 0,9 -4,16 -10,16 -5,0 -10,5 -10,10 0,11 -11,26 -45,62 -12,13 -14,18 -5,14 9,-5 8,-2 -2,7 -10,8 -18,19 -18,25 0,5 -11,20 -25,33 -13,13 -25,31 -25,40 0,9 -7,20 -16,23 -8,3 -13,10 -10,15 3,5 -1,12 -10,15 -8,3 -12,10 -9,16 3,5 2,10 -3,10 -5,0 -15,14 -22,30 -7,17 -16,30 -21,30 -5,0 -9,7 -9,15 0,8 -3,15 -8,15 -4,0 -13,14 -20,30 -13,28 -42,42 -42,20 0,-5 -6,-10 -14,-10 -8,0 -17,-9 -21,-20 -3,-11 -12,-19 -18,-17 -11,2 -50,54 -50,67 0,3 -7,11 -16,18 -13,11 -13,12 -1,7 9,-4 6,2 -5,12 -11,10 -21,24 -23,32 -1,7 -10,24 -19,38 -10,14 -18,33 -19,41 -2,8 -7,18 -12,21 -5,3 -25,38 -44,76 -18,39 -40,81 -48,95 -8,14 -15,27 -15,30 -1,3 -11,24 -23,46 -11,23 -18,44 -15,48 4,3 2,6 -4,6 -6,0 -19,23 -29,50 -10,28 -22,50 -28,50 -5,0 -7,3 -3,6 3,4 -3,25 -15,48 -11,22 -20,42 -20,43 1,2 -6,22 -15,45 -10,24 -17,46 -15,51 1,4 -3,7 -8,7 -5,0 -10,8 -10,18 0,10 -4,22 -8,28 -5,5 -19,41 -32,79 -17,52 -28,71 -42,72 -10,1 -18,-1 -18,-5 z"
              id="path3881"
              inkscape:connector-curvature="0"
              style="fill:#a37eb9;stroke:#ffffff;stroke-width:5;stroke-miterlimit:10" />
        <path class="ci"
              stroke-miterlimit="10"
              d="m 11460,2760 c 0,-5 -5,-10 -11,-10 -7,0 -22,-11 -35,-26 -13,-14 -24,-21 -24,-17 0,4 -4,3 -8,-3 -4,-5 -29,-26 -57,-45 -68,-46 -74,-51 -92,-71 -9,-9 -20,-15 -25,-12 -4,3 -11,-2 -14,-10 -3,-9 -10,-13 -15,-10 -5,3 -9,1 -9,-3 0,-5 -15,-17 -32,-27 -18,-11 -43,-28 -55,-38 -12,-12 -27,-17 -34,-13 -8,5 -10,4 -5,-3 4,-7 2,-12 -4,-12 -7,0 -29,-13 -49,-29 -21,-17 -43,-31 -51,-33 -7,-2 -21,-10 -31,-18 -30,-26 -44,-35 -59,-38 -8,-2 -17,-7 -20,-11 -10,-13 -60,-41 -60,-34 0,5 -4,3 -8,-3 -7,-10 -57,-40 -168,-99 -26,-14 -53,-30 -60,-36 -7,-6 -20,-12 -29,-13 -9,-1 -21,-9 -26,-17 -5,-8 -9,-11 -9,-6 0,4 -11,0 -25,-9 -14,-9 -25,-13 -25,-9 0,3 -12,-2 -27,-13 -35,-25 -121,-65 -139,-65 -7,0 -11,-4 -8,-9 3,-4 1,-8 -4,-8 -5,0 -40,-14 -78,-32 -38,-17 -71,-32 -74,-33 -49,-14 -60,-19 -60,-28 0,-6 -3,-7 -7,-4 -3,4 -12,2 -20,-4 -7,-6 -13,-8 -13,-3 0,5 -4,3 -8,-3 -4,-7 -17,-14 -27,-16 -11,-2 -36,-10 -55,-19 -19,-9 -51,-21 -70,-28 -19,-7 -50,-19 -69,-27 -18,-8 -39,-16 -45,-17 -6,-1 -21,-7 -33,-14 -12,-7 -30,-12 -41,-12 -10,0 -22,-3 -26,-7 -11,-11 -79,-32 -88,-27 -4,3 -8,0 -8,-6 0,-6 -4,-8 -10,-5 -5,3 -10,1 -10,-6 0,-7 -3,-10 -6,-6 -4,3 -22,0 -42,-9 -19,-8 -37,-12 -40,-9 -3,3 -16,-2 -29,-10 -13,-9 -23,-14 -23,-11 0,2 -37,-7 -82,-21 -93,-27 -114,-33 -143,-38 -11,-2 -44,-11 -74,-19 -30,-8 -58,-13 -63,-10 -4,3 -8,1 -8,-4 0,-5 -6,-9 -12,-10 -42,-5 -74,-10 -78,-13 -3,-1 -9,-3 -15,-4 -5,-2 -12,-4 -15,-5 -3,-1 -14,-3 -25,-5 -11,-2 -27,-5 -35,-8 -33,-9 -116,-21 -127,-19 -7,2 -13,-1 -13,-6 0,-4 -13,-7 -30,-6 -16,1 -30,-1 -30,-6 0,-4 -10,-7 -22,-7 -13,0 -45,-4 -73,-8 -27,-5 -58,-10 -67,-11 -10,-1 -19,-2 -20,-3 -4,-3 -85,-12 -120,-14 -16,-1 -28,-4 -28,-8 0,-3 -15,-4 -32,-3 -18,1 -37,0 -41,-3 -9,-5 -88,-12 -189,-16 -27,-1 -48,-6 -48,-10 0,-4 -9,-3 -19,3 -11,5 -22,7 -25,2 -2,-4 -39,-8 -80,-7 -42,0 -76,-2 -76,-5 0,-3 -70,-5 -155,-5 -97,0 -155,-4 -155,-10 0,-7 -3,-7 -8,0 -10,13 -83,15 -75,2 4,-6 1,-7 -6,-2 -12,7 -76,11 -283,19 -58,2 -110,6 -115,9 -4,2 -19,4 -33,3 -14,-1 -31,2 -37,7 -9,6 -13,6 -13,-2 0,-7 -8,-8 -22,-3 -13,5 -30,8 -38,7 -8,-1 -23,3 -32,7 -11,5 -18,5 -18,-1 0,-6 -10,-7 -27,-1 -16,5 -55,11 -88,14 -33,3 -73,8 -90,12 -16,3 -46,8 -65,10 -19,3 -44,6 -55,7 -11,1 -24,5 -30,8 -5,3 -22,5 -37,4 -16,0 -28,2 -28,5 0,5 -38,10 -87,13 -13,1 -23,4 -23,7 0,3 -10,7 -22,8 -42,3 -83,9 -98,14 -56,20 -90,25 -83,15 4,-7 -5,-4 -20,6 -15,9 -27,15 -27,13 0,-3 -15,0 -32,6 -18,5 -44,12 -58,14 -35,6 -65,12 -65,14 0,1 -9,3 -19,5 -24,5 -59,-13 -51,-26 4,-5 1,-9 -6,-9 -7,0 -9,-3 -6,-7 4,-3 2,-12 -4,-19 -8,-10 -7,-18 5,-29 9,-9 16,-14 16,-11 0,2 15,0 33,-5 30,-10 60,-17 82,-22 6,-2 16,-7 24,-11 9,-6 12,-5 8,1 -4,6 12,4 36,-4 23,-8 60,-17 82,-19 22,-3 42,-9 45,-13 3,-4 15,-7 28,-8 48,-2 53,-3 46,-14 -4,-8 0,-8 15,0 11,7 21,8 21,3 0,-7 37,-14 92,-16 14,-1 24,-5 20,-10 -3,-5 5,-7 16,-4 12,4 22,3 22,-1 0,-4 14,-6 30,-5 17,1 30,-1 30,-4 0,-4 19,-8 41,-9 23,-2 47,-8 54,-13 9,-8 15,-8 20,0 3,6 12,7 18,3 7,-4 32,-9 56,-11 24,-1 52,-7 63,-13 12,-7 18,-6 18,1 0,7 5,8 13,3 6,-4 23,-8 37,-10 71,-5 86,-8 99,-17 12,-9 13,-8 7,3 -6,10 -4,12 11,7 19,-6 138,-17 234,-20 30,-2 60,-6 66,-9 7,-4 15,-3 18,3 5,8 11,8 19,1 7,-6 16,-8 20,-4 4,4 11,1 16,-7 7,-10 10,-11 10,-2 0,6 5,12 11,12 5,0 7,-5 4,-11 -4,-6 3,-5 14,3 18,11 23,11 31,-2 8,-13 10,-13 10,-1 0,11 3,12 11,4 6,-6 25,-7 50,-3 22,4 42,3 45,-1 3,-5 10,-9 15,-9 6,0 8,4 5,9 -3,4 12,5 34,1 27,-5 40,-4 40,4 0,7 3,7 8,1 10,-14 83,-15 75,-1 -4,6 0,5 9,-2 11,-9 18,-10 23,-2 3,6 11,7 17,4 14,-9 67,-11 62,-3 -2,3 20,5 49,4 29,-1 55,4 59,9 5,7 8,6 8,-3 0,-11 3,-11 14,-2 11,10 20,10 37,1 15,-8 19,-9 15,-1 -8,12 28,10 40,-2 4,-4 13,-2 20,4 12,9 64,15 212,22 23,1 42,4 42,7 0,3 16,5 35,5 19,-1 35,3 35,8 0,5 6,4 14,-2 10,-8 16,-9 21,-1 4,7 13,7 27,-1 15,-8 19,-8 14,0 -7,11 1,13 57,13 15,1 27,5 27,11 0,6 5,5 13,-2 9,-7 17,-7 24,0 5,5 28,11 50,13 22,1 45,6 53,11 9,6 11,4 5,-5 -6,-10 -4,-11 6,-4 14,9 22,11 74,18 17,3 30,5 30,6 0,3 42,11 72,14 18,1 35,5 39,9 4,4 18,7 30,7 13,0 26,5 29,10 5,8 11,8 19,1 8,-6 16,-7 22,-1 5,5 23,11 39,14 17,2 30,5 30,6 0,2 27,7 60,12 11,2 26,7 33,11 6,5 12,6 12,3 0,-3 18,1 40,9 22,8 41,14 43,13 1,-1 25,4 53,11 29,7 59,13 68,15 8,1 19,5 22,9 4,4 18,7 31,7 12,0 23,4 23,8 0,5 6,9 13,9 20,1 61,11 88,21 15,6 30,8 33,5 3,-4 6,-1 6,6 0,7 7,11 15,8 8,-4 17,-2 20,4 4,5 11,7 16,4 5,-4 9,-1 9,6 0,6 8,9 20,6 11,-3 20,-1 20,4 0,5 9,9 20,9 11,0 20,4 20,10 0,5 7,7 15,4 8,-4 15,-2 15,4 0,5 6,9 13,9 24,-1 77,16 77,24 0,5 3,8 8,7 9,-3 163,52 179,65 7,5 17,6 23,2 5,-3 10,-2 10,4 0,9 68,37 83,33 4,-1 7,2 7,8 0,5 9,10 20,10 11,0 20,5 20,12 0,6 3,9 6,6 3,-4 40,10 82,29 148,68 167,76 174,77 4,1 16,9 28,18 11,10 20,16 20,13 0,-3 24,7 53,22 28,15 55,27 59,28 4,0 15,7 25,15 20,17 78,43 89,40 4,-1 10,3 13,8 7,11 81,56 129,77 17,9 32,20 32,25 0,6 3,9 8,8 14,-3 62,22 62,32 0,5 5,10 11,10 14,0 133,71 137,82 2,4 9,8 16,8 7,0 25,11 40,25 14,13 26,22 26,19 0,-7 94,58 98,68 2,4 9,8 16,8 6,0 27,13 46,30 19,16 41,29 48,30 7,0 15,7 18,15 4,8 11,15 16,15 6,0 25,12 43,28 18,15 58,45 89,67 31,22 56,43 56,46 0,4 12,11 26,16 l 25,8 -20,24 c -12,13 -21,21 -21,17 0,-3 -13,0 -30,9 -34,17 -50,19 -50,5 z"
              id="path3883"
              inkscape:connector-curvature="0"
              style="fill:#6d52a2;stroke:#ffffff;stroke-width:5;stroke-miterlimit:10" />
    </g>
</svg>