<?xml version="1.0" standalone="no"?>
<!DOCTYPE svg PUBLIC "-//W3C//DTD SVG 20010904//EN"
 "http://www.w3.org/TR/2001/REC-SVG-20010904/DTD/svg10.dtd">
<svg version="1.0" xmlns="http://www.w3.org/2000/svg"
 width="500.000000pt" height="500.000000pt" viewBox="0 0 500.000000 500.000000"
 preserveAspectRatio="xMidYMid meet">
<metadata>
Created by potrace 1.14, written by Peter Selinger 2001-2017
</metadata>
<g transform="translate(0.000000,500.000000) scale(0.100000,-0.100000)"
fill="#000000" stroke="none">
<path d="M1397 4159 c-37 -9 -147 -56 -157 -68 -3 -3 -21 -18 -41 -33 -67 -50
-179 -179 -179 -207 0 -5 -4 -11 -8 -13 -9 -3 -77 -132 -108 -203 -10 -22 -19
-44 -22 -50 -2 -5 11 8 29 29 55 64 132 134 162 147 15 6 27 15 27 19 0 9 130
57 175 65 47 8 157 8 189 0 16 -5 36 -9 45 -9 91 -10 250 -99 332 -188 9 -10
19 -18 22 -18 3 0 20 -15 39 -32 18 -18 67 -62 107 -98 41 -36 127 -117 192
-182 151 -149 182 -208 182 -344 l0 -51 35 -1 c134 -5 227 -47 344 -154 23
-21 45 -38 50 -38 5 0 6 -4 3 -10 -3 -5 -2 -10 3 -10 9 0 70 -54 205 -182 28
-27 54 -48 59 -48 4 0 8 -7 8 -15 0 -8 4 -15 8 -15 5 0 67 -57 138 -126 398
-387 386 -378 491 -378 51 1 69 5 105 29 42 27 55 39 109 102 33 38 114 160
141 213 7 14 17 28 23 32 6 5 6 8 0 8 -6 0 -6 3 0 8 6 4 23 41 39 82 16 41 34
89 41 105 20 48 108 327 107 342 0 7 58 195 63 203 12 20 26 110 30 194 2 48
-4 98 -19 161 -13 58 -57 119 -159 219 -261 258 -444 398 -541 410 -11 2 -30
7 -40 11 -43 18 -246 9 -280 -13 -6 -3 -16 -7 -21 -8 -17 -2 -117 -66 -149
-94 -106 -92 -196 -226 -271 -405 -16 -38 -30 -72 -30 -75 -1 -3 -8 -21 -17
-40 -19 -42 -61 -170 -61 -187 0 -7 -4 -13 -9 -13 -4 0 -8 -6 -8 -14 0 -27
-22 -29 -45 -5 -12 13 -35 36 -51 51 -16 15 -34 33 -41 40 -6 7 -30 31 -52 52
-23 22 -41 43 -41 48 0 4 -6 9 -12 9 -7 1 -49 41 -93 89 -44 48 -83 88 -86 89
-3 0 -55 49 -115 109 -60 59 -145 139 -189 177 -43 39 -86 77 -95 85 -30 29
-145 117 -181 138 -34 21 -98 47 -144 59 -36 9 -199 11 -238 2z m1950 -647
c47 -24 223 -188 618 -578 94 -93 125 -163 121 -274 -2 -45 -10 -87 -20 -105
-9 -16 -16 -36 -16 -43 0 -7 -7 -15 -15 -18 -8 -4 -15 -12 -15 -18 0 -19 -91
-106 -135 -128 -50 -26 -161 -32 -187 -10 -10 8 -18 12 -18 9 0 -7 -61 33 -83
54 -8 8 -92 88 -186 179 -282 270 -416 403 -438 435 -67 96 -66 242 1 357 21
36 128 150 139 147 1 0 13 4 27 9 73 28 133 23 207 -16z"/>
<path d="M1270 3781 c-152 -39 -259 -121 -366 -281 -24 -36 -47 -69 -52 -75
-4 -5 -13 -26 -19 -45 -65 -206 -94 -298 -97 -315 -2 -11 -11 -40 -19 -65 -15
-44 -38 -123 -43 -147 -1 -6 -7 -34 -13 -63 -27 -127 4 -280 81 -394 58 -84
252 -290 334 -353 86 -66 125 -93 134 -93 6 0 10 -4 10 -9 0 -16 164 -91 225
-102 86 -16 211 -5 271 23 27 13 51 25 54 28 3 3 23 17 46 32 78 50 196 190
220 261 4 9 10 17 15 17 5 0 9 6 9 14 0 30 76 153 125 202 66 66 123 95 194
99 114 7 200 -46 406 -246 226 -220 271 -261 298 -276 29 -15 108 -70 140 -98
9 -8 18 -15 20 -14 3 1 39 -13 91 -35 21 -9 49 -16 62 -16 12 0 25 -4 28 -8 6
-9 148 -7 186 3 14 3 30 7 36 8 6 2 23 10 37 20 15 9 32 17 38 17 25 0 2 10
-33 14 -38 5 -131 44 -136 58 -2 4 -8 8 -13 8 -5 0 -49 39 -98 88 -117 115
-244 236 -426 407 -82 77 -182 171 -222 209 -159 150 -244 197 -363 201 -41 2
-78 -1 -81 -7 -4 -5 -13 -3 -22 6 -12 12 -14 27 -10 54 21 132 -4 206 -101
304 -69 70 -277 264 -346 324 -54 47 -57 49 -108 97 -23 20 -44 37 -47 37 -3
0 -15 9 -27 20 -48 44 -200 97 -298 104 -30 2 -84 -4 -120 -13z m94 -218 c58
-18 63 -22 184 -138 131 -124 246 -244 250 -258 6 -27 -30 -47 -177 -102 -159
-59 -343 -142 -349 -157 -2 -4 -8 -8 -14 -8 -5 0 -21 -9 -34 -19 -15 -12 -33
-17 -47 -14 -23 6 -193 172 -224 220 -29 43 -25 193 7 258 34 71 74 124 128
169 88 72 161 85 276 49z m446 -537 c55 -11 111 -38 161 -76 25 -19 58 -44 73
-55 82 -60 107 -105 110 -201 6 -158 -146 -359 -287 -380 -122 -18 -183 11
-317 148 -117 120 -143 166 -147 258 -3 96 35 164 140 247 27 21 95 52 128 58
18 3 35 8 37 9 4 5 60 0 102 -8z"/>
<path d="M2331 2413 c-35 -14 -118 -99 -138 -141 -9 -20 -21 -40 -26 -43 -5
-3 -8 -10 -8 -15 1 -17 -10 -44 -19 -44 -4 0 -11 -11 -14 -25 -4 -14 -11 -25
-16 -25 -6 0 -10 -7 -10 -16 0 -17 -14 -37 -99 -140 -59 -73 -98 -113 -103
-109 -2 2 -9 -4 -17 -12 -12 -13 -11 -14 10 -8 13 4 31 15 41 26 9 10 21 19
27 19 6 0 11 3 11 8 0 4 17 25 38 47 50 55 109 136 121 168 6 15 15 27 20 27
5 0 12 12 16 27 3 15 10 30 13 33 4 3 18 28 32 55 45 91 130 156 195 150 81
-7 87 -12 485 -395 59 -57 199 -162 260 -196 19 -10 37 -22 40 -25 7 -7 88
-39 101 -39 21 0 -2 19 -31 25 -17 4 -30 10 -30 13 0 4 -21 18 -47 32 -50 26
-62 34 -91 61 -9 9 -42 32 -72 52 -30 20 -140 119 -245 221 -104 102 -193 186
-197 186 -4 0 -17 11 -30 24 -39 41 -98 66 -153 65 -27 0 -56 -3 -64 -6z"/>
<path d="M1140 1300 c-13 -8 -15 -52 -16 -292 0 -156 3 -291 8 -300 11 -22 51
-24 68 -4 17 21 17 571 0 592 -14 16 -38 18 -60 4z"/>
<path d="M3813 1299 c-14 -14 -6 -39 12 -39 18 0 26 27 11 39 -9 7 -16 7 -23
0z"/>
<path d="M1945 1284 c-13 -5 -11 -152 3 -166 6 -6 39 -12 73 -12 49 -2 67 2
81 16 33 33 6 98 -40 98 -29 0 -47 -26 -51 -73 -1 -5 -9 -7 -18 -5 -15 3 -18
15 -19 63 -2 92 -2 91 -29 79z m135 -124 c0 -11 -7 -20 -15 -20 -8 0 -15 9
-15 20 0 11 7 20 15 20 8 0 15 -9 15 -20z"/>
<path d="M2425 1284 c-13 -5 -9 -154 5 -168 6 -6 47 -13 90 -15 75 -3 80 -2
80 17 0 17 -7 21 -37 24 -45 4 -55 33 -11 33 34 0 44 11 28 30 -15 18 -61 20
-78 3 -7 -7 -12 -25 -12 -41 0 -22 -4 -28 -17 -25 -15 3 -19 16 -21 76 -3 69
-5 75 -27 66z"/>
<path d="M2627 1283 c-7 -14 -2 -161 6 -169 4 -4 62 -9 130 -10 138 -3 158 5
152 58 -6 43 -24 60 -57 56 -26 -4 -28 -2 -28 33 0 30 -3 37 -17 35 -19 -3
-20 -11 -22 -99 -1 -41 -4 -48 -18 -45 -15 3 -18 15 -19 63 -2 82 -2 82 -19
82 -18 0 -17 3 -20 -72 -2 -33 -3 -64 -4 -68 0 -5 -11 -7 -23 -5 -21 3 -23 9
-26 76 -2 54 -6 72 -17 72 -8 0 -16 -3 -18 -7z m253 -123 c0 -15 -7 -20 -25
-20 -27 0 -32 9 -13 28 18 18 38 14 38 -8z"/>
<path d="M3524 1282 c-6 -4 -10 -37 -10 -80 1 -100 2 -101 179 -100 172 0 186
5 183 73 -2 49 -15 65 -53 65 -27 0 -56 -28 -49 -47 3 -8 6 -18 6 -23 0 -5 12
-13 28 -18 24 -9 22 -11 -25 -11 -52 -1 -53 0 -53 28 0 24 -4 29 -20 28 -15
-1 -20 -8 -20 -28 0 -26 -2 -27 -60 -31 -33 -1 -65 -1 -70 0 -6 2 -10 37 -10
78 0 72 -4 81 -26 66z m307 -85 c-1 -12 -15 -9 -19 4 -3 6 1 10 8 8 6 -3 11
-8 11 -12z"/>
<path d="M2950 1184 c0 -76 2 -85 18 -82 14 3 17 16 20 86 3 77 2 82 -18 82
-19 0 -20 -6 -20 -86z"/>
<path d="M3661 1257 c-14 -17 3 -41 23 -34 9 4 16 13 16 21 0 19 -26 28 -39
13z"/>
<path d="M2234 1254 c-12 -5 -7 -44 5 -44 4 0 12 5 19 12 9 9 15 9 23 1 14
-14 39 -6 39 12 0 20 -19 28 -35 15 -9 -7 -15 -8 -20 0 -7 11 -13 11 -31 4z"/>
<path d="M1805 1226 c-39 -14 -56 -35 -52 -63 3 -18 -2 -22 -35 -25 -48 -4
-68 6 -68 37 0 16 -5 22 -17 21 -14 -2 -18 -13 -19 -54 0 -29 -3 -55 -7 -59
-6 -6 -26 -9 -64 -12 -6 -1 -9 -10 -6 -21 9 -34 81 -16 103 26 10 17 22 24 44
25 66 2 133 0 168 -6 40 -6 58 11 58 55 0 19 -56 91 -69 89 -3 -1 -19 -6 -36
-13z m5 -51 c0 -8 -7 -15 -15 -15 -9 0 -12 6 -9 15 4 8 10 15 15 15 5 0 9 -7
9 -15z m63 -25 c3 -11 1 -20 -4 -20 -5 0 -12 0 -16 0 -5 0 -8 6 -9 13 -1 31
21 37 29 7z"/>
<path d="M3144 1205 c-33 -33 -30 -77 6 -85 26 -6 41 -39 18 -41 -7 0 -25 -3
-40 -5 -36 -6 -57 17 -52 61 2 28 0 35 -15 35 -27 0 -29 -7 -20 -58 12 -62 39
-83 97 -77 50 6 72 24 78 63 3 20 -2 34 -17 48 -11 10 -24 18 -27 16 -4 -2 -8
1 -10 7 -2 6 6 11 17 11 26 0 40 28 20 41 -21 13 -28 11 -55 -16z"/>
<path d="M3425 1222 c-68 -12 -54 -122 16 -122 8 0 8 -4 0 -14 -7 -8 -20 -13
-30 -11 -25 5 -43 -9 -35 -28 9 -24 63 -15 90 16 45 52 15 169 -41 159z m25
-63 c0 -24 -23 -21 -28 4 -2 10 3 17 12 17 10 0 16 -9 16 -21z"/>
<path d="M2166 1191 c-7 -12 3 -62 15 -77 9 -11 32 -14 94 -13 46 1 88 5 95 9
7 4 13 25 14 46 1 28 -3 39 -16 42 -12 2 -17 -5 -20 -25 -3 -28 -4 -28 -75
-31 -76 -3 -80 0 -75 49 1 3 -6 6 -14 6 -8 0 -16 -3 -18 -6z"/>
<path d="M3317 1194 c-4 -4 -7 -29 -7 -54 0 -51 -12 -68 -47 -65 -16 1 -23 -4
-23 -17 0 -52 95 -18 106 37 12 64 -5 122 -29 99z"/>
<path d="M1533 937 c-4 -6 -8 -63 -8 -124 l0 -113 30 0 30 0 0 122 c0 117 -1
121 -22 124 -12 2 -26 -2 -30 -9z"/>
<path d="M1620 923 c0 -22 13 -28 48 -24 13 2 13 0 15 -119 2 -74 3 -75 29
-78 26 -3 27 -2 26 50 0 29 0 75 1 101 1 47 2 48 29 45 23 -3 27 1 27 22 0 25
-1 25 -87 25 -85 0 -88 -1 -88 -22z"/>
<path d="M1890 932 c-1 -33 -2 -187 -1 -209 1 -18 7 -23 26 -23 28 0 28 1 26
80 l-2 55 25 -35 c52 -73 67 -77 94 -29 36 65 43 68 41 19 -2 -88 -1 -90 29
-90 l27 0 -1 113 c-2 145 0 136 -31 134 -24 -2 -33 -13 -61 -70 -19 -37 -37
-67 -41 -67 -4 0 -23 30 -42 67 -28 55 -39 67 -61 69 -20 2 -28 -2 -28 -14z"/>
<path d="M2251 921 c-15 -42 -41 -122 -56 -173 l-13 -48 28 0 c19 0 29 6 33
19 8 34 97 34 97 0 0 -15 7 -19 36 -19 30 0 35 3 29 18 -4 9 -15 44 -25 77
-10 33 -27 80 -37 104 -17 38 -24 45 -51 46 -25 1 -33 -4 -41 -24z m62 -101
c6 -23 3 -26 -18 -26 -28 0 -30 9 -13 56 12 36 16 32 31 -30z"/>
<path d="M2439 945 c-1 0 -2 -55 -3 -122 l-1 -123 27 0 c25 0 28 4 29 33 1 17
1 40 0 50 -2 14 6 17 43 17 l46 0 0 -48 c0 -56 3 -61 33 -55 22 4 22 8 21 121
-1 64 -2 120 -3 123 0 4 -11 6 -23 5 -20 -1 -24 -8 -28 -51 -5 -46 -7 -49 -35
-51 -43 -2 -56 5 -54 30 4 61 0 74 -26 72 -14 0 -25 -1 -26 -1z"/>
<path d="M2689 946 c-1 -1 -2 -56 -3 -123 l-1 -123 76 0 c73 0 76 1 75 23 -1
16 -7 22 -26 23 -14 1 -35 2 -47 3 -17 1 -23 7 -23 26 0 22 4 25 39 25 22 0
43 5 47 11 10 17 -14 34 -49 34 -28 0 -32 4 -35 28 -3 27 -2 28 37 24 43 -4
66 10 56 35 -4 10 -24 14 -75 14 -39 0 -71 0 -71 0z"/>
<path d="M2874 827 l1 -122 30 0 c28 0 30 2 30 40 0 22 2 40 5 39 18 -2 39
-23 47 -49 7 -24 16 -31 40 -33 28 -3 31 -1 25 20 -3 13 -13 36 -23 52 -17 28
-17 30 2 54 47 60 6 112 -93 117 l-64 4 0 -122z m104 60 c19 -13 14 -37 -10
-46 -27 -10 -40 5 -32 36 6 21 18 24 42 10z"/>
<path d="M3233 936 c-39 -18 -55 -46 -58 -105 -5 -82 38 -134 111 -134 48 0
65 13 57 42 -3 13 -13 16 -43 13 -32 -3 -41 0 -55 22 -11 17 -15 37 -12 62 6
44 18 58 55 60 15 1 33 2 40 3 8 0 12 10 10 23 -2 17 -11 23 -38 25 -19 1 -49
-4 -67 -11z"/>
<path d="M3417 931 c-34 -20 -51 -69 -45 -133 4 -39 11 -55 33 -74 16 -13 35
-25 44 -25 9 -1 23 -2 31 -3 60 -6 102 43 106 124 3 50 -1 61 -24 90 -23 27
-35 33 -72 35 -27 1 -56 -5 -73 -14z m101 -58 c9 -12 12 -33 8 -61 -8 -57 -12
-62 -46 -62 -35 0 -54 28 -52 79 3 62 56 89 90 44z"/>
<path d="M3629 933 c-1 -10 -1 -65 -2 -123 l-1 -105 26 -3 c30 -4 40 18 26 56
-4 12 -4 22 1 22 4 0 6 11 3 25 -7 37 3 31 32 -20 34 -57 57 -58 91 -5 14 22
27 40 30 40 3 0 5 -17 4 -37 -3 -76 -1 -83 26 -83 l25 0 -1 120 c0 66 -3 120
-7 121 -4 0 -16 2 -28 4 -17 4 -26 -8 -53 -65 -19 -39 -36 -70 -38 -70 -8 0
-33 28 -33 38 0 5 -10 28 -23 52 -17 32 -30 44 -50 47 -20 3 -27 -1 -28 -14z"/>
<path d="M3103 753 c-7 -2 -13 -15 -13 -28 0 -25 15 -34 43 -27 22 6 23 48 1
56 -9 3 -16 6 -17 5 -1 0 -8 -3 -14 -6z"/>
</g>
</svg>
